<svg xmlns="http://www.w3.org/2000/svg" xmlns:ev="http://www.w3.org/2001/xml-events" xmlns:xlink="http://www.w3.org/1999/xlink" baseProfile="full" height="1200" version="1.1" width="1200"><defs><style type="text/css"><![CDATA[.background path {fill: #808080; fill-opacity: 0}.background path:nth-child(odd) {fill-opacity: .1}.axes {font-size: 14px}.x-axis .tick .lab {font-weight: bold; dominant-baseline: hanging}.axes, .tree {font-size: 14px; text-anchor: middle}.axes line, .edge {stroke: black; fill: none}.y-axis .grid {stroke: #FAFAFA}.node > .sym {fill: black; stroke: none}.site > .sym {stroke: black}.mut text {fill: red; font-style: italic}.mut.extra text {fill: hotpink}.mut line {fill: none; stroke: none}.mut .sym {fill: none; stroke: red}.mut.extra .sym {stroke: hotpink}.node .mut .sym {stroke-width: 1.5px}.tree text, .tree-sequence text {dominant-baseline: central}.plotbox .lab.lft {text-anchor: end}.plotbox .lab.rgt {text-anchor: start}text {font-size: 35px}]]></style></defs><g class="tree-sequence"><g class="plotbox trees"><g class="tree t0" transform="translate(20 0)"><g class="plotbox"><g class="c2 node n18 p0 root" transform="translate(888.875 26.8)"><g class="a18 i4 leaf m0 m4 m6 node n4 p0 s0 s4 s6 sample" transform="translate(195.125 1131.4)"><path class="edge" d="M 0 0 V -1131.4 H -195.125"/><g class="mut m4 s4" transform="translate(0 -958.635)"><line x1="0" x2="0" y1="0" y2="958.635"/><path class="sym" d="M -3,-3 l 6,6 M -3,3 l 6,-6"/><text class="lab rgt" transform="translate(5 0)">4:A/G</text></g><g class="mut m0 s0" transform="translate(0 -766.766)"><line x1="0" x2="0" y1="0" y2="766.766"/><path class="sym" d="M -3,-3 l 6,6 M -3,3 l 6,-6"/><text class="lab rgt" transform="translate(5 0)">0:C/A</text></g><g class="mut m6 s6" transform="translate(0 -276.115)"><line x1="0" x2="0" y1="0" y2="276.115"/><path class="sym" d="M -3,-3 l 6,6 M -3,3 l 6,-6"/><text class="lab rgt" transform="translate(5 0)">6:G/A</text></g><rect class="sym" height="6" width="6" x="-3" y="-3"/><text class="lab" transform="translate(0 11)">4</text></g><g class="a18 c2 m10 m2 m3 m9 node n17 p0 s10 s2 s3 s9" transform="translate(-195.125 545.222)"><g class="a17 c2 m1 m5 m8 node n10 p0 s1 s5 s8" transform="translate(222.25 578.196)"><g class="a10 i1 leaf node n1 p0 sample" transform="translate(-56 7.98222)"><path class="edge" d="M 0 0 V -7.98222 H 56"/><rect class="sym" height="6" width="6" x="-3" y="-3"/><text class="lab" transform="translate(0 11)">1</text></g><g class="a10 i8 leaf node n8 p0 sample" transform="translate(56 7.98222)"><path class="edge" d="M 0 0 V -7.98222 H -56"/><rect class="sym" height="6" width="6" x="-3" y="-3"/><text class="lab" transform="translate(0 11)">8</text></g><path class="edge" d="M 0 0 V -578.196 H -222.25"/><g class="mut m8 s8" transform="translate(0 -467.086)"><line x1="0" x2="0" y1="0" y2="467.086"/><path class="sym" d="M -3,-3 l 6,6 M -3,3 l 6,-6"/><text class="lab rgt" transform="translate(5 0)">8:A/C</text></g><g class="mut m5 s5" transform="translate(0 -387.898)"><line x1="0" x2="0" y1="0" y2="387.898"/><path class="sym" d="M -3,-3 l 6,6 M -3,3 l 6,-6"/><text class="lab rgt" transform="translate(5 0)">5:A/T</text></g><g class="mut m1 s1" transform="translate(0 -26.5748)"><line x1="0" x2="0" y1="0" y2="26.5748"/><path class="sym" d="M -3,-3 l 6,6 M -3,3 l 6,-6"/><text class="lab rgt" transform="translate(5 0)">1:A/G</text></g><circle class="sym" cx="0" cy="0" r="3"/><text class="lab rgt" transform="translate(3 -7.0)">10</text></g><g class="a17 c2 node n16 p0" transform="translate(-222.25 219.327)"><g class="a16 c2 node n13 p0" transform="translate(220.5 290.464)"><g class="a13 i2 leaf m7 node n2 p0 s7 sample" transform="translate(-56 76.3871)"><path class="edge" d="M 0 0 V -76.3871 H 56"/><g class="mut m7 s7" transform="translate(0 -43.7725)"><line x1="0" x2="0" y1="0" y2="43.7725"/><path class="sym" d="M -3,-3 l 6,6 M -3,3 l 6,-6"/><text class="lab lft" transform="translate(-5 0)">7:T/G</text></g><rect class="sym" height="6" width="6" x="-3" y="-3"/><text class="lab" transform="translate(0 11)">2</text></g><g class="a13 i7 leaf node n7 p0 sample" transform="translate(56 76.3871)"><path class="edge" d="M 0 0 V -76.3871 H -56"/><rect class="sym" height="6" width="6" x="-3" y="-3"/><text class="lab" transform="translate(0 11)">7</text></g><path class="edge" d="M 0 0 V -290.464 H -220.5"/><circle class="sym" cx="0" cy="0" r="3"/><text class="lab rgt" transform="translate(3 -7.0)">13</text></g><g class="a16 c2 node n15 p0" transform="translate(-220.5 39.1895)"><g class="a15 i0 leaf node n0 p0 sample" transform="translate(-175 327.662)"><path class="edge" d="M 0 0 V -327.662 H 175"/><rect class="sym" height="6" width="6" x="-3" y="-3"/><text class="lab" transform="translate(0 11)">0</text></g><g class="a15 c2 node n14 p0" transform="translate(175 238.726)"><g class="a14 i6 leaf node n6 p0 sample" transform="translate(98 88.9357)"><path class="edge" d="M 0 0 V -88.9357 H -98"/><rect class="sym" height="6" width="6" x="-3" y="-3"/><text class="lab" transform="translate(0 11)">6</text></g><g class="a14 c2 node n12 p0" transform="translate(-98 25.2749)"><g class="a12 i5 leaf node n5 p0 sample" transform="translate(84 63.6609)"><path class="edge" d="M 0 0 V -63.6609 H -84"/><rect class="sym" height="6" width="6" x="-3" y="-3"/><text class="lab" transform="translate(0 11)">5</text></g><g class="a12 c2 node n11 p0" transform="translate(-84 51.8804)"><g class="a11 i3 leaf node n3 p0 sample" transform="translate(-56 11.7805)"><path class="edge" d="M 0 0 V -11.7805 H 56"/><rect class="sym" height="6" width="6" x="-3" y="-3"/><text class="lab" transform="translate(0 11)">3</text></g><g class="a11 i9 leaf node n9 p0 sample" transform="translate(56 11.7805)"><path class="edge" d="M 0 0 V -11.7805 H -56"/><rect class="sym" height="6" width="6" x="-3" y="-3"/><text class="lab" transform="translate(0 11)">9</text></g><path class="edge" d="M 0 0 V -51.8804 H 84"/><circle class="sym" cx="0" cy="0" r="3"/><text class="lab lft" transform="translate(-3 -7.0)">11</text></g><path class="edge" d="M 0 0 V -25.2749 H 98"/><circle class="sym" cx="0" cy="0" r="3"/><text class="lab lft" transform="translate(-3 -7.0)">12</text></g><path class="edge" d="M 0 0 V -238.726 H -175"/><circle class="sym" cx="0" cy="0" r="3"/><text class="lab rgt" transform="translate(3 -7.0)">14</text></g><path class="edge" d="M 0 0 V -39.1895 H 220.5"/><circle class="sym" cx="0" cy="0" r="3"/><text class="lab lft" transform="translate(-3 -7.0)">15</text></g><path class="edge" d="M 0 0 V -219.327 H 222.25"/><circle class="sym" cx="0" cy="0" r="3"/><text class="lab lft" transform="translate(-3 -7.0)">16</text></g><path class="edge" d="M 0 0 V -545.222 H 195.125"/><g class="mut m3 s3" transform="translate(0 -504.947)"><line x1="0" x2="0" y1="0" y2="504.947"/><path class="sym" d="M -3,-3 l 6,6 M -3,3 l 6,-6"/><text class="lab lft" transform="translate(-5 0)">3:T/A</text></g><g class="mut m9 s9" transform="translate(0 -74.6955)"><line x1="0" x2="0" y1="0" y2="74.6955"/><path class="sym" d="M -3,-3 l 6,6 M -3,3 l 6,-6"/><text class="lab lft" transform="translate(-5 0)">9:T/C</text></g><g class="mut m2 s2" transform="translate(0 -35.0249)"><line x1="0" x2="0" y1="0" y2="35.0249"/><path class="sym" d="M -3,-3 l 6,6 M -3,3 l 6,-6"/><text class="lab lft" transform="translate(-5 0)">2:C/T</text></g><g class="mut m10 s10" transform="translate(0 -24.3283)"><line x1="0" x2="0" y1="0" y2="24.3283"/><path class="sym" d="M -3,-3 l 6,6 M -3,3 l 6,-6"/><text class="lab lft" transform="translate(-5 0)">10:A/G</text></g><circle class="sym" cx="0" cy="0" r="3"/><text class="lab lft" transform="translate(-3 -7.0)">17</text></g><circle class="sym" cx="0" cy="0" r="3"/><text class="lab" transform="translate(0 -11)">18</text></g></g></g></g></g></svg>