<svg xmlns="http://www.w3.org/2000/svg" xmlns:ev="http://www.w3.org/2001/xml-events" xmlns:xlink="http://www.w3.org/1999/xlink" baseProfile="full" height="800" version="1.1" width="800"><defs><style type="text/css"><![CDATA[.background path {fill: #808080; fill-opacity: 0}.background path:nth-child(odd) {fill-opacity: .1}.axes {font-size: 14px}.x-axis .tick .lab {font-weight: bold; dominant-baseline: hanging}.axes, .tree {font-size: 14px; text-anchor: middle}.axes line, .edge {stroke: black; fill: none}.y-axis .grid {stroke: #FAFAFA}.node > .sym {fill: black; stroke: none}.site > .sym {stroke: black}.mut text {fill: red; font-style: italic}.mut.extra text {fill: hotpink}.mut line {fill: none; stroke: none}.mut .sym {fill: none; stroke: red}.mut.extra .sym {stroke: hotpink}.node .mut .sym {stroke-width: 1.5px}.tree text, .tree-sequence text {dominant-baseline: central}.plotbox .lab.lft {text-anchor: end}.plotbox .lab.rgt {text-anchor: start}]]></style></defs><g class="tree-sequence"><g class="plotbox trees"><g class="tree t0" transform="translate(20 0)"><g class="plotbox"><g class="c2 node n18 p0 root" transform="translate(617.375 26.8)"><g class="a18 i2 leaf node n2 p0 sample" transform="translate(86.625 731.4)"><path class="edge" d="M 0 0 V -731.4 H -86.625"/><rect class="sym" height="6" width="6" x="-3" y="-3"/><text class="lab" transform="translate(0 11)">2: 0, 1</text></g><g class="a18 c2 node n17 p0" transform="translate(-86.625 160.646)"><g class="a17 i8 leaf node n8 p0 sample" transform="translate(101.25 570.754)"><path class="edge" d="M 0 0 V -570.754 H -101.25"/><rect class="sym" height="6" width="6" x="-3" y="-3"/><text class="lab" transform="translate(0 11)">8: 0, 1</text></g><g class="a17 c2 node n16 p0" transform="translate(-101.25 372.15)"><g class="a16 i9 leaf node n9 p0 sample" transform="translate(130.5 198.603)"><path class="edge" d="M 0 0 V -198.603 H -130.5"/><rect class="sym" height="6" width="6" x="-3" y="-3"/><text class="lab" transform="translate(0 11)">9: 0, 1</text></g><g class="a16 c2 node n15 p0" transform="translate(-130.5 64.3173)"><g class="a15 c2 node n13 p0" transform="translate(-135 98.4699)"><g class="a13 c2 node n10 p0" transform="translate(-72 18.9252)"><g class="a10 i0 leaf node n0 p0 sample" transform="translate(-36 16.891)"><path class="edge" d="M 0 0 V -16.891 H 36"/><rect class="sym" height="6" width="6" x="-3" y="-3"/><text class="lab" transform="translate(0 11)">0: 0, 1</text></g><g class="a10 i4 leaf node n4 p0 sample" transform="translate(36 16.891)"><path class="edge" d="M 0 0 V -16.891 H -36"/><rect class="sym" height="6" width="6" x="-3" y="-3"/><text class="lab" transform="translate(0 11)">4: 0, 1</text></g><path class="edge" d="M 0 0 V -18.9252 H 72"/><circle class="sym" cx="0" cy="0" r="3"/><text class="lab lft" transform="translate(-3 -7.0)">10: 413, 2</text></g><g class="a13 c2 node n11 p0" transform="translate(72 8.99759)"><g class="a11 i5 leaf node n5 p0 sample" transform="translate(-36 26.8186)"><path class="edge" d="M 0 0 V -26.8186 H 36"/><rect class="sym" height="6" width="6" x="-3" y="-3"/><text class="lab" transform="translate(0 11)">5: 0, 1</text></g><g class="a11 i7 leaf node n7 p0 sample" transform="translate(36 26.8186)"><path class="edge" d="M 0 0 V -26.8186 H -36"/><rect class="sym" height="6" width="6" x="-3" y="-3"/><text class="lab" transform="translate(0 11)">7: 0, 1</text></g><path class="edge" d="M 0 0 V -8.99759 H -72"/><circle class="sym" cx="0" cy="0" r="3"/><text class="lab rgt" transform="translate(3 -7.0)">11: 656, 2</text></g><path class="edge" d="M 0 0 V -98.4699 H 135"/><circle class="sym" cx="0" cy="0" r="3"/><text class="lab lft" transform="translate(-3 -7.0)">13: 877, 4</text></g><g class="a15 c2 node n14 p0" transform="translate(135 87.8414)"><g class="a14 i6 leaf node n6 p0 sample" transform="translate(54 46.4446)"><path class="edge" d="M 0 0 V -46.4446 H -54"/><rect class="sym" height="6" width="6" x="-3" y="-3"/><text class="lab" transform="translate(0 11)">6: 0, 1</text></g><g class="a14 c2 node n12 p0" transform="translate(-54 17.0666)"><g class="a12 i1 leaf node n1 p0 sample" transform="translate(-36 29.378)"><path class="edge" d="M 0 0 V -29.378 H 36"/><rect class="sym" height="6" width="6" x="-3" y="-3"/><text class="lab" transform="translate(0 11)">1: 0, 1</text></g><g class="a12 i3 leaf node n3 p0 sample" transform="translate(36 29.378)"><path class="edge" d="M 0 0 V -29.378 H -36"/><rect class="sym" height="6" width="6" x="-3" y="-3"/><text class="lab" transform="translate(0 11)">3: 0, 1</text></g><path class="edge" d="M 0 0 V -17.0666 H 54"/><circle class="sym" cx="0" cy="0" r="3"/><text class="lab lft" transform="translate(-3 -7.0)">12: 719, 2</text></g><path class="edge" d="M 0 0 V -87.8414 H -135"/><circle class="sym" cx="0" cy="0" r="3"/><text class="lab rgt" transform="translate(3 -7.0)">14: 1137, 3</text></g><path class="edge" d="M 0 0 V -64.3173 H 130.5"/><circle class="sym" cx="0" cy="0" r="3"/><text class="lab lft" transform="translate(-3 -7.0)">15: 3288, 7</text></g><path class="edge" d="M 0 0 V -372.15 H 101.25"/><circle class="sym" cx="0" cy="0" r="3"/><text class="lab lft" transform="translate(-3 -7.0)">16: 4863, 8</text></g><path class="edge" d="M 0 0 V -160.646 H 86.625"/><circle class="sym" cx="0" cy="0" r="3"/><text class="lab lft" transform="translate(-3 -7.0)">17: 13977, 9</text></g><circle class="sym" cx="0" cy="0" r="3"/><text class="lab" transform="translate(0 -11)">18: 17911, 10</text></g></g></g></g></g></svg>