<svg xmlns="http://www.w3.org/2000/svg" xmlns:ev="http://www.w3.org/2001/xml-events" xmlns:xlink="http://www.w3.org/1999/xlink" baseProfile="full" height="800" version="1.1" width="800"><defs><style type="text/css"><![CDATA[.background path {fill: #808080; fill-opacity: 0}.background path:nth-child(odd) {fill-opacity: .1}.axes {font-size: 14px}.x-axis .tick .lab {font-weight: bold; dominant-baseline: hanging}.axes, .tree {font-size: 14px; text-anchor: middle}.axes line, .edge {stroke: black; fill: none}.y-axis .grid {stroke: #FAFAFA}.node > .sym {fill: black; stroke: none}.site > .sym {stroke: black}.mut text {fill: red; font-style: italic}.mut.extra text {fill: hotpink}.mut line {fill: none; stroke: none}.mut .sym {fill: none; stroke: red}.mut.extra .sym {stroke: hotpink}.node .mut .sym {stroke-width: 1.5px}.tree text, .tree-sequence text {dominant-baseline: central}.plotbox .lab.lft {text-anchor: end}.plotbox .lab.rgt {text-anchor: start}]]></style></defs><g class="tree-sequence"><g class="plotbox trees"><g class="tree t0" transform="translate(20 0)"><g class="plotbox"><g class="c2 node n18 p0 root" transform="translate(524 26.8)"><g class="a18 i4 leaf node n4 p0 sample" transform="translate(180 731.4)"><path class="edge" d="M 0 0 V -731.4 H -180"/><rect class="sym" height="6" width="6" x="-3" y="-3"/><text class="lab" transform="translate(0 11)">4: 0, 1</text></g><g class="a18 c2 node n17 p0" transform="translate(-180 370.805)"><g class="a17 c2 node n12 p0" transform="translate(153 322.04)"><g class="a12 i1 leaf node n1 p0 sample" transform="translate(-81 38.5545)"><path class="edge" d="M 0 0 V -38.5545 H 81"/><rect class="sym" height="6" width="6" x="-3" y="-3"/><text class="lab" transform="translate(0 11)">1: 0, 1</text></g><g class="a12 c2 node n11 p0" transform="translate(81 10.7428)"><g class="a11 i8 leaf node n8 p0 sample" transform="translate(54 27.8117)"><path class="edge" d="M 0 0 V -27.8117 H -54"/><rect class="sym" height="6" width="6" x="-3" y="-3"/><text class="lab" transform="translate(0 11)">8: 0, 1</text></g><g class="a11 c2 node n10 p0" transform="translate(-54 16.191)"><g class="a10 i2 leaf node n2 p0 sample" transform="translate(-36 11.6206)"><path class="edge" d="M 0 0 V -11.6206 H 36"/><rect class="sym" height="6" width="6" x="-3" y="-3"/><text class="lab" transform="translate(0 11)">2: 0, 1</text></g><g class="a10 i9 leaf node n9 p0 sample" transform="translate(36 11.6206)"><path class="edge" d="M 0 0 V -11.6206 H -36"/><rect class="sym" height="6" width="6" x="-3" y="-3"/><text class="lab" transform="translate(0 11)">9: 0, 1</text></g><path class="edge" d="M 0 0 V -16.191 H 54"/><circle class="sym" cx="0" cy="0" r="3"/><text class="lab lft" transform="translate(-3 -7.0)">10: 164, 2</text></g><path class="edge" d="M 0 0 V -10.7428 H -81"/><circle class="sym" cx="0" cy="0" r="3"/><text class="lab rgt" transform="translate(3 -7.0)">11: 393, 3</text></g><path class="edge" d="M 0 0 V -322.04 H -153"/><circle class="sym" cx="0" cy="0" r="3"/><text class="lab rgt" transform="translate(3 -7.0)">12: 545, 4</text></g><g class="a17 c2 node n16 p0" transform="translate(-153 40.1161)"><g class="a16 c2 node n14 p0" transform="translate(-99 186.19)"><g class="a14 i0 leaf node n0 p0 sample" transform="translate(-36 134.288)"><path class="edge" d="M 0 0 V -134.288 H 36"/><rect class="sym" height="6" width="6" x="-3" y="-3"/><text class="lab" transform="translate(0 11)">0: 0, 1</text></g><g class="a14 i6 leaf node n6 p0 sample" transform="translate(36 134.288)"><path class="edge" d="M 0 0 V -134.288 H -36"/><rect class="sym" height="6" width="6" x="-3" y="-3"/><text class="lab" transform="translate(0 11)">6: 0, 1</text></g><path class="edge" d="M 0 0 V -186.19 H 99"/><circle class="sym" cx="0" cy="0" r="3"/><text class="lab lft" transform="translate(-3 -7.0)">14: 1901, 2</text></g><g class="a16 c2 node n15 p0" transform="translate(99 166.554)"><g class="a15 i7 leaf node n7 p0 sample" transform="translate(54 153.924)"><path class="edge" d="M 0 0 V -153.924 H -54"/><rect class="sym" height="6" width="6" x="-3" y="-3"/><text class="lab" transform="translate(0 11)">7: 0, 1</text></g><g class="a15 c2 node n13 p0" transform="translate(-54 56.2149)"><g class="a13 i3 leaf node n3 p0 sample" transform="translate(-36 97.7094)"><path class="edge" d="M 0 0 V -97.7094 H 36"/><rect class="sym" height="6" width="6" x="-3" y="-3"/><text class="lab" transform="translate(0 11)">3: 0, 1</text></g><g class="a13 i5 leaf node n5 p0 sample" transform="translate(36 97.7094)"><path class="edge" d="M 0 0 V -97.7094 H -36"/><rect class="sym" height="6" width="6" x="-3" y="-3"/><text class="lab" transform="translate(0 11)">5: 0, 1</text></g><path class="edge" d="M 0 0 V -56.2149 H 54"/><circle class="sym" cx="0" cy="0" r="3"/><text class="lab lft" transform="translate(-3 -7.0)">13: 1383, 2</text></g><path class="edge" d="M 0 0 V -166.554 H -99"/><circle class="sym" cx="0" cy="0" r="3"/><text class="lab rgt" transform="translate(3 -7.0)">15: 2179, 3</text></g><path class="edge" d="M 0 0 V -40.1161 H 153"/><circle class="sym" cx="0" cy="0" r="3"/><text class="lab lft" transform="translate(-3 -7.0)">16: 4537, 5</text></g><path class="edge" d="M 0 0 V -370.805 H 180"/><circle class="sym" cx="0" cy="0" r="3"/><text class="lab lft" transform="translate(-3 -7.0)">17: 5105, 9</text></g><circle class="sym" cx="0" cy="0" r="3"/><text class="lab" transform="translate(0 -11)">18: 10356, 10</text></g></g></g></g></g></svg>