<svg xmlns="http://www.w3.org/2000/svg" xmlns:ev="http://www.w3.org/2001/xml-events" xmlns:xlink="http://www.w3.org/1999/xlink" baseProfile="full" height="800" version="1.1" width="800"><defs><style type="text/css"><![CDATA[.background path {fill: #808080; fill-opacity: 0}.background path:nth-child(odd) {fill-opacity: .1}.axes {font-size: 14px}.x-axis .tick .lab {font-weight: bold; dominant-baseline: hanging}.axes, .tree {font-size: 14px; text-anchor: middle}.axes line, .edge {stroke: black; fill: none}.y-axis .grid {stroke: #FAFAFA}.node > .sym {fill: black; stroke: none}.site > .sym {stroke: black}.mut text {fill: red; font-style: italic}.mut.extra text {fill: hotpink}.mut line {fill: none; stroke: none}.mut .sym {fill: none; stroke: red}.mut.extra .sym {stroke: hotpink}.node .mut .sym {stroke-width: 1.5px}.tree text, .tree-sequence text {dominant-baseline: central}.plotbox .lab.lft {text-anchor: end}.plotbox .lab.rgt {text-anchor: start}]]></style></defs><g class="tree-sequence"><g class="axes"><g class="x-axis"><g transform="translate(400,800)"><text class="lab" text-anchor="middle" transform="translate(0 -11)">Genome position</text></g><line x1="20" x2="780" y1="763.2" y2="763.2"/><g class="ticks"><g class="tick" transform="translate(20 763.2)"><line x1="0" x2="0" y1="-5" y2="5"/><g transform="translate(0,6)"><text class="lab">0</text></g></g><g class="tick" transform="translate(273.333 763.2)"><line x1="0" x2="0" y1="-5" y2="5"/><g transform="translate(0,6)"><text class="lab">68</text></g></g><g class="tick" transform="translate(526.667 763.2)"><line x1="0" x2="0" y1="-5" y2="5"/><g transform="translate(0,6)"><text class="lab">217</text></g></g><g class="tick" transform="translate(780 763.2)"><line x1="0" x2="0" y1="-5" y2="5"/><g transform="translate(0,6)"><text class="lab">1000</text></g></g></g></g></g><g class="plotbox trees"><g class="tree t0" transform="translate(20 0)"><g class="plotbox"><g class="c2 node n19 p0 root" transform="translate(151.333 359.499)"><g class="a19 c2 node n17 p0" transform="translate(-52.6667 85.4207)"><g class="a17 c2 node n10 p0" transform="translate(28 276.101)"><g class="a10 i2 leaf node n2 p0 sample" transform="translate(-10.6667 0.379163)"><path class="edge" d="M 0 0 V -0.379163 H 10.6667"/><rect class="sym" height="6" width="6" x="-3" y="-3"/><text class="lab" transform="translate(0 11)">2: 0</text></g><g class="a10 i4 leaf node n4 p0 sample" transform="translate(10.6667 0.379163)"><path class="edge" d="M 0 0 V -0.379163 H -10.6667"/><rect class="sym" height="6" width="6" x="-3" y="-3"/><text class="lab" transform="translate(0 11)">4: 0</text></g><path class="edge" d="M 0 0 V -276.101 H -28"/><circle class="sym" cx="0" cy="0" r="3"/><text class="lab rgt" transform="translate(3 -7.0)">10: 11</text></g><g class="a17 c2 node n15 p0" transform="translate(-28 148.919)"><g class="a15 i8 leaf node n8 p0 sample" transform="translate(24 127.561)"><path class="edge" d="M 0 0 V -127.561 H -24"/><rect class="sym" height="6" width="6" x="-3" y="-3"/><text class="lab" transform="translate(0 11)">8: 0</text></g><g class="a15 c2 node n13 p0" transform="translate(-24 28.9904)"><g class="a13 i0 leaf node n0 p0 sample" transform="translate(-16 98.5709)"><path class="edge" d="M 0 0 V -98.5709 H 16"/><rect class="sym" height="6" width="6" x="-3" y="-3"/><text class="lab" transform="translate(0 11)">0: 0</text></g><g class="a13 c2 node n11 p0" transform="translate(16 98.1424)"><g class="a11 i1 leaf node n1 p0 sample" transform="translate(-10.6667 0.428528)"><path class="edge" d="M 0 0 V -0.428528 H 10.6667"/><rect class="sym" height="6" width="6" x="-3" y="-3"/><text class="lab" transform="translate(0 11)">1: 0</text></g><g class="a11 i7 leaf node n7 p0 sample" transform="translate(10.6667 0.428528)"><path class="edge" d="M 0 0 V -0.428528 H -10.6667"/><rect class="sym" height="6" width="6" x="-3" y="-3"/><text class="lab" transform="translate(0 11)">7: 0</text></g><path class="edge" d="M 0 0 V -98.1424 H -16"/><circle class="sym" cx="0" cy="0" r="3"/><text class="lab rgt" transform="translate(3 -7.0)">11: 12</text></g><path class="edge" d="M 0 0 V -28.9904 H 24"/><circle class="sym" cx="0" cy="0" r="3"/><text class="lab lft" transform="translate(-3 -7.0)">13: 2948</text></g><path class="edge" d="M 0 0 V -148.919 H 28"/><circle class="sym" cx="0" cy="0" r="3"/><text class="lab lft" transform="translate(-3 -7.0)">15: 3816</text></g><path class="edge" d="M 0 0 V -85.4207 H 52.6667"/><circle class="sym" cx="0" cy="0" r="3"/><text class="lab lft" transform="translate(-3 -7.0)">17: 8271</text></g><g class="a19 c2 node n18 p0" transform="translate(52.6667 15.7968)"><g class="a18 i5 leaf node n5 p0 sample" transform="translate(18.6667 346.105)"><path class="edge" d="M 0 0 V -346.105 H -18.6667"/><rect class="sym" height="6" width="6" x="-3" y="-3"/><text class="lab" transform="translate(0 11)">5: 0</text></g><g class="a18 c2 node n14 p0" transform="translate(-18.6667 230.243)"><g class="a14 i9 leaf node n9 p0 sample" transform="translate(16 115.861)"><path class="edge" d="M 0 0 V -115.861 H -16"/><rect class="sym" height="6" width="6" x="-3" y="-3"/><text class="lab" transform="translate(0 11)">9: 0</text></g><g class="a14 c2 node n12 p0" transform="translate(-16 94.434)"><g class="a12 i3 leaf node n3 p0 sample" transform="translate(-10.6667 21.4271)"><path class="edge" d="M 0 0 V -21.4271 H 10.6667"/><rect class="sym" height="6" width="6" x="-3" y="-3"/><text class="lab" transform="translate(0 11)">3: 0</text></g><g class="a12 i6 leaf node n6 p0 sample" transform="translate(10.6667 21.4271)"><path class="edge" d="M 0 0 V -21.4271 H -10.6667"/><rect class="sym" height="6" width="6" x="-3" y="-3"/><text class="lab" transform="translate(0 11)">6: 0</text></g><path class="edge" d="M 0 0 V -94.434 H 16"/><circle class="sym" cx="0" cy="0" r="3"/><text class="lab lft" transform="translate(-3 -7.0)">12: 641</text></g><path class="edge" d="M 0 0 V -230.243 H 18.6667"/><circle class="sym" cx="0" cy="0" r="3"/><text class="lab lft" transform="translate(-3 -7.0)">14: 3466</text></g><path class="edge" d="M 0 0 V -15.7968 H -52.6667"/><circle class="sym" cx="0" cy="0" r="3"/><text class="lab rgt" transform="translate(3 -7.0)">18: 10354</text></g><circle class="sym" cx="0" cy="0" r="3"/><text class="lab" transform="translate(0 -11)">19: 10826</text></g></g></g><g class="tree t1" transform="translate(273.333 0)"><g class="plotbox"><g class="c2 node n20 p0 root" transform="translate(118 26.8)"><g class="a20 c2 node n15 p0" transform="translate(-47.3333 567.039)"><g class="a15 i8 leaf node n8 p0 sample" transform="translate(24 127.561)"><path class="edge" d="M 0 0 V -127.561 H -24"/><rect class="sym" height="6" width="6" x="-3" y="-3"/><text class="lab" transform="translate(0 11)">8: 0</text></g><g class="a15 c2 node n13 p0" transform="translate(-24 28.9904)"><g class="a13 i0 leaf node n0 p0 sample" transform="translate(-16 98.5709)"><path class="edge" d="M 0 0 V -98.5709 H 16"/><rect class="sym" height="6" width="6" x="-3" y="-3"/><text class="lab" transform="translate(0 11)">0: 0</text></g><g class="a13 c2 node n11 p0" transform="translate(16 98.1424)"><g class="a11 i1 leaf node n1 p0 sample" transform="translate(-10.6667 0.428528)"><path class="edge" d="M 0 0 V -0.428528 H 10.6667"/><rect class="sym" height="6" width="6" x="-3" y="-3"/><text class="lab" transform="translate(0 11)">1: 0</text></g><g class="a11 i7 leaf node n7 p0 sample" transform="translate(10.6667 0.428528)"><path class="edge" d="M 0 0 V -0.428528 H -10.6667"/><rect class="sym" height="6" width="6" x="-3" y="-3"/><text class="lab" transform="translate(0 11)">7: 0</text></g><path class="edge" d="M 0 0 V -98.1424 H -16"/><circle class="sym" cx="0" cy="0" r="3"/><text class="lab rgt" transform="translate(3 -7.0)">11: 12</text></g><path class="edge" d="M 0 0 V -28.9904 H 24"/><circle class="sym" cx="0" cy="0" r="3"/><text class="lab lft" transform="translate(-3 -7.0)">13: 2948</text></g><path class="edge" d="M 0 0 V -567.039 H 47.3333"/><circle class="sym" cx="0" cy="0" r="3"/><text class="lab lft" transform="translate(-3 -7.0)">15: 3816</text></g><g class="a20 c2 node n19 p0" transform="translate(47.3333 332.699)"><g class="a19 c2 node n18 p0" transform="translate(38.6667 15.7968)"><g class="a18 i5 leaf node n5 p0 sample" transform="translate(18.6667 346.105)"><path class="edge" d="M 0 0 V -346.105 H -18.6667"/><rect class="sym" height="6" width="6" x="-3" y="-3"/><text class="lab" transform="translate(0 11)">5: 0</text></g><g class="a18 c2 node n14 p0" transform="translate(-18.6667 230.243)"><g class="a14 i9 leaf node n9 p0 sample" transform="translate(16 115.861)"><path class="edge" d="M 0 0 V -115.861 H -16"/><rect class="sym" height="6" width="6" x="-3" y="-3"/><text class="lab" transform="translate(0 11)">9: 0</text></g><g class="a14 c2 node n12 p0" transform="translate(-16 94.434)"><g class="a12 i3 leaf node n3 p0 sample" transform="translate(-10.6667 21.4271)"><path class="edge" d="M 0 0 V -21.4271 H 10.6667"/><rect class="sym" height="6" width="6" x="-3" y="-3"/><text class="lab" transform="translate(0 11)">3: 0</text></g><g class="a12 i6 leaf node n6 p0 sample" transform="translate(10.6667 21.4271)"><path class="edge" d="M 0 0 V -21.4271 H -10.6667"/><rect class="sym" height="6" width="6" x="-3" y="-3"/><text class="lab" transform="translate(0 11)">6: 0</text></g><path class="edge" d="M 0 0 V -94.434 H 16"/><circle class="sym" cx="0" cy="0" r="3"/><text class="lab lft" transform="translate(-3 -7.0)">12: 641</text></g><path class="edge" d="M 0 0 V -230.243 H 18.6667"/><circle class="sym" cx="0" cy="0" r="3"/><text class="lab lft" transform="translate(-3 -7.0)">14: 3466</text></g><path class="edge" d="M 0 0 V -15.7968 H -38.6667"/><circle class="sym" cx="0" cy="0" r="3"/><text class="lab rgt" transform="translate(3 -7.0)">18: 10354</text></g><g class="a19 c2 node n10 p0" transform="translate(-38.6667 361.522)"><g class="a10 i2 leaf node n2 p0 sample" transform="translate(-10.6667 0.379163)"><path class="edge" d="M 0 0 V -0.379163 H 10.6667"/><rect class="sym" height="6" width="6" x="-3" y="-3"/><text class="lab" transform="translate(0 11)">2: 0</text></g><g class="a10 i4 leaf node n4 p0 sample" transform="translate(10.6667 0.379163)"><path class="edge" d="M 0 0 V -0.379163 H -10.6667"/><rect class="sym" height="6" width="6" x="-3" y="-3"/><text class="lab" transform="translate(0 11)">4: 0</text></g><path class="edge" d="M 0 0 V -361.522 H 38.6667"/><circle class="sym" cx="0" cy="0" r="3"/><text class="lab lft" transform="translate(-3 -7.0)">10: 11</text></g><path class="edge" d="M 0 0 V -332.699 H -47.3333"/><circle class="sym" cx="0" cy="0" r="3"/><text class="lab rgt" transform="translate(3 -7.0)">19: 10826</text></g><circle class="sym" cx="0" cy="0" r="3"/><text class="lab" transform="translate(0 -11)">20: 20779</text></g></g></g><g class="tree t2" transform="translate(526.667 0)"><g class="plotbox"><g class="c2 node n20 p0 root" transform="translate(118 26.8)"><g class="a20 c2 node n15 p0" transform="translate(-47.3333 567.039)"><g class="a15 i8 leaf node n8 p0 sample" transform="translate(24 127.561)"><path class="edge" d="M 0 0 V -127.561 H -24"/><rect class="sym" height="6" width="6" x="-3" y="-3"/><text class="lab" transform="translate(0 11)">8: 0</text></g><g class="a15 c2 node n13 p0" transform="translate(-24 28.9904)"><g class="a13 i0 leaf node n0 p0 sample" transform="translate(-16 98.5709)"><path class="edge" d="M 0 0 V -98.5709 H 16"/><rect class="sym" height="6" width="6" x="-3" y="-3"/><text class="lab" transform="translate(0 11)">0: 0</text></g><g class="a13 c2 node n11 p0" transform="translate(16 98.1424)"><g class="a11 i1 leaf node n1 p0 sample" transform="translate(-10.6667 0.428528)"><path class="edge" d="M 0 0 V -0.428528 H 10.6667"/><rect class="sym" height="6" width="6" x="-3" y="-3"/><text class="lab" transform="translate(0 11)">1: 0</text></g><g class="a11 i7 leaf node n7 p0 sample" transform="translate(10.6667 0.428528)"><path class="edge" d="M 0 0 V -0.428528 H -10.6667"/><rect class="sym" height="6" width="6" x="-3" y="-3"/><text class="lab" transform="translate(0 11)">7: 0</text></g><path class="edge" d="M 0 0 V -98.1424 H -16"/><circle class="sym" cx="0" cy="0" r="3"/><text class="lab rgt" transform="translate(3 -7.0)">11: 12</text></g><path class="edge" d="M 0 0 V -28.9904 H 24"/><circle class="sym" cx="0" cy="0" r="3"/><text class="lab lft" transform="translate(-3 -7.0)">13: 2948</text></g><path class="edge" d="M 0 0 V -567.039 H 47.3333"/><circle class="sym" cx="0" cy="0" r="3"/><text class="lab lft" transform="translate(-3 -7.0)">15: 3816</text></g><g class="a20 c2 node n19 p0" transform="translate(47.3333 332.699)"><g class="a19 c2 node n10 p0" transform="translate(-38.6667 361.522)"><g class="a10 i2 leaf node n2 p0 sample" transform="translate(-10.6667 0.379163)"><path class="edge" d="M 0 0 V -0.379163 H 10.6667"/><rect class="sym" height="6" width="6" x="-3" y="-3"/><text class="lab" transform="translate(0 11)">2: 0</text></g><g class="a10 i4 leaf node n4 p0 sample" transform="translate(10.6667 0.379163)"><path class="edge" d="M 0 0 V -0.379163 H -10.6667"/><rect class="sym" height="6" width="6" x="-3" y="-3"/><text class="lab" transform="translate(0 11)">4: 0</text></g><path class="edge" d="M 0 0 V -361.522 H 38.6667"/><circle class="sym" cx="0" cy="0" r="3"/><text class="lab lft" transform="translate(-3 -7.0)">10: 11</text></g><g class="a19 c2 node n16 p0" transform="translate(38.6667 180.629)"><g class="a16 i5 leaf node n5 p0 sample" transform="translate(18.6667 181.273)"><path class="edge" d="M 0 0 V -181.273 H -18.6667"/><rect class="sym" height="6" width="6" x="-3" y="-3"/><text class="lab" transform="translate(0 11)">5: 0</text></g><g class="a16 c2 node n14 p0" transform="translate(-18.6667 65.4115)"><g class="a14 i9 leaf node n9 p0 sample" transform="translate(16 115.861)"><path class="edge" d="M 0 0 V -115.861 H -16"/><rect class="sym" height="6" width="6" x="-3" y="-3"/><text class="lab" transform="translate(0 11)">9: 0</text></g><g class="a14 c2 node n12 p0" transform="translate(-16 94.434)"><g class="a12 i3 leaf node n3 p0 sample" transform="translate(-10.6667 21.4271)"><path class="edge" d="M 0 0 V -21.4271 H 10.6667"/><rect class="sym" height="6" width="6" x="-3" y="-3"/><text class="lab" transform="translate(0 11)">3: 0</text></g><g class="a12 i6 leaf node n6 p0 sample" transform="translate(10.6667 21.4271)"><path class="edge" d="M 0 0 V -21.4271 H -10.6667"/><rect class="sym" height="6" width="6" x="-3" y="-3"/><text class="lab" transform="translate(0 11)">6: 0</text></g><path class="edge" d="M 0 0 V -94.434 H 16"/><circle class="sym" cx="0" cy="0" r="3"/><text class="lab lft" transform="translate(-3 -7.0)">12: 641</text></g><path class="edge" d="M 0 0 V -65.4115 H 18.6667"/><circle class="sym" cx="0" cy="0" r="3"/><text class="lab lft" transform="translate(-3 -7.0)">14: 3466</text></g><path class="edge" d="M 0 0 V -180.629 H -38.6667"/><circle class="sym" cx="0" cy="0" r="3"/><text class="lab rgt" transform="translate(3 -7.0)">16: 5423</text></g><path class="edge" d="M 0 0 V -332.699 H -47.3333"/><circle class="sym" cx="0" cy="0" r="3"/><text class="lab rgt" transform="translate(3 -7.0)">19: 10826</text></g><circle class="sym" cx="0" cy="0" r="3"/><text class="lab" transform="translate(0 -11)">20: 20779</text></g></g></g></g></g></svg>