<svg xmlns="http://www.w3.org/2000/svg" xmlns:ev="http://www.w3.org/2001/xml-events" xmlns:xlink="http://www.w3.org/1999/xlink" baseProfile="full" height="800" version="1.1" width="800"><defs><style type="text/css"><![CDATA[.background path {fill: #808080; fill-opacity: 0}.background path:nth-child(odd) {fill-opacity: .1}.axes {font-size: 14px}.x-axis .tick .lab {font-weight: bold; dominant-baseline: hanging}.axes, .tree {font-size: 14px; text-anchor: middle}.axes line, .edge {stroke: black; fill: none}.y-axis .grid {stroke: #FAFAFA}.node > .sym {fill: black; stroke: none}.site > .sym {stroke: black}.mut text {fill: red; font-style: italic}.mut.extra text {fill: hotpink}.mut line {fill: none; stroke: none}.mut .sym {fill: none; stroke: red}.mut.extra .sym {stroke: hotpink}.node .mut .sym {stroke-width: 1.5px}.tree text, .tree-sequence text {dominant-baseline: central}.plotbox .lab.lft {text-anchor: end}.plotbox .lab.rgt {text-anchor: start}]]></style></defs><g class="tree-sequence"><g class="plotbox trees"><g class="tree t0" transform="translate(20 0)"><g class="plotbox"><g class="c2 node n18 p0 root" transform="translate(377.75 26.8)"><g class="a18 c2 node n16 p0" transform="translate(191.25 342.18)"><g class="a16 i1 leaf node n1 p0 sample" transform="translate(-81 389.22)"><path class="edge" d="M 0 0 V -389.22 H 81"/><rect class="sym" height="6" width="6" x="-3" y="-3"/><text class="lab" transform="translate(0 11)">1: 0, 1</text></g><g class="a16 c2 node n14 p0" transform="translate(81 294.791)"><g class="a14 i9 leaf node n9 p0 sample" transform="translate(54 94.4288)"><path class="edge" d="M 0 0 V -94.4288 H -54"/><rect class="sym" height="6" width="6" x="-3" y="-3"/><text class="lab" transform="translate(0 11)">9: 0, 1</text></g><g class="a14 c2 node n10 p0" transform="translate(-54 80.4004)"><g class="a10 i4 leaf node n4 p0 sample" transform="translate(-36 14.0283)"><path class="edge" d="M 0 0 V -14.0283 H 36"/><rect class="sym" height="6" width="6" x="-3" y="-3"/><text class="lab" transform="translate(0 11)">4: 0, 1</text></g><g class="a10 i7 leaf node n7 p0 sample" transform="translate(36 14.0283)"><path class="edge" d="M 0 0 V -14.0283 H -36"/><rect class="sym" height="6" width="6" x="-3" y="-3"/><text class="lab" transform="translate(0 11)">7: 0, 1</text></g><path class="edge" d="M 0 0 V -80.4004 H 54"/><circle class="sym" cx="0" cy="0" r="3"/><text class="lab lft" transform="translate(-3 -7.0)">10: 223, 2</text></g><path class="edge" d="M 0 0 V -294.791 H -81"/><circle class="sym" cx="0" cy="0" r="3"/><text class="lab rgt" transform="translate(3 -7.0)">14: 1504, 3</text></g><path class="edge" d="M 0 0 V -342.18 H -191.25"/><circle class="sym" cx="0" cy="0" r="3"/><text class="lab rgt" transform="translate(3 -7.0)">16: 6200, 4</text></g><g class="a18 c2 node n17 p0" transform="translate(-191.25 135.147)"><g class="a17 c2 node n13 p0" transform="translate(94.5 555.061)"><g class="a13 i2 leaf node n2 p0 sample" transform="translate(-81 41.1916)"><path class="edge" d="M 0 0 V -41.1916 H 81"/><rect class="sym" height="6" width="6" x="-3" y="-3"/><text class="lab" transform="translate(0 11)">2: 0, 1</text></g><g class="a13 c2 node n12 p0" transform="translate(81 9.77123)"><g class="a12 i6 leaf node n6 p0 sample" transform="translate(54 31.4204)"><path class="edge" d="M 0 0 V -31.4204 H -54"/><rect class="sym" height="6" width="6" x="-3" y="-3"/><text class="lab" transform="translate(0 11)">6: 0, 1</text></g><g class="a12 c2 node n11 p0" transform="translate(-54 2.93748)"><g class="a11 i3 leaf node n3 p0 sample" transform="translate(-36 28.4829)"><path class="edge" d="M 0 0 V -28.4829 H 36"/><rect class="sym" height="6" width="6" x="-3" y="-3"/><text class="lab" transform="translate(0 11)">3: 0, 1</text></g><g class="a11 i8 leaf node n8 p0 sample" transform="translate(36 28.4829)"><path class="edge" d="M 0 0 V -28.4829 H -36"/><rect class="sym" height="6" width="6" x="-3" y="-3"/><text class="lab" transform="translate(0 11)">8: 0, 1</text></g><path class="edge" d="M 0 0 V -2.93748 H 54"/><circle class="sym" cx="0" cy="0" r="3"/><text class="lab lft" transform="translate(-3 -7.0)">11: 453, 2</text></g><path class="edge" d="M 0 0 V -9.77123 H -81"/><circle class="sym" cx="0" cy="0" r="3"/><text class="lab rgt" transform="translate(3 -7.0)">12: 500, 3</text></g><path class="edge" d="M 0 0 V -555.061 H -94.5"/><circle class="sym" cx="0" cy="0" r="3"/><text class="lab rgt" transform="translate(3 -7.0)">13: 656, 4</text></g><g class="a17 c2 node n15 p0" transform="translate(-94.5 421.209)"><g class="a15 i0 leaf node n0 p0 sample" transform="translate(-36 175.044)"><path class="edge" d="M 0 0 V -175.044 H 36"/><rect class="sym" height="6" width="6" x="-3" y="-3"/><text class="lab" transform="translate(0 11)">0: 0, 1</text></g><g class="a15 i5 leaf node n5 p0 sample" transform="translate(36 175.044)"><path class="edge" d="M 0 0 V -175.044 H -36"/><rect class="sym" height="6" width="6" x="-3" y="-3"/><text class="lab" transform="translate(0 11)">5: 0, 1</text></g><path class="edge" d="M 0 0 V -421.209 H 94.5"/><circle class="sym" cx="0" cy="0" r="3"/><text class="lab lft" transform="translate(-3 -7.0)">15: 2788, 2</text></g><path class="edge" d="M 0 0 V -135.147 H 191.25"/><circle class="sym" cx="0" cy="0" r="3"/><text class="lab lft" transform="translate(-3 -7.0)">17: 9498, 6</text></g><circle class="sym" cx="0" cy="0" r="3"/><text class="lab" transform="translate(0 -11)">18: 11651, 10</text></g></g></g></g></g></svg>