<svg xmlns="http://www.w3.org/2000/svg" xmlns:ev="http://www.w3.org/2001/xml-events" xmlns:xlink="http://www.w3.org/1999/xlink" baseProfile="full" height="800" version="1.1" width="800"><defs><style type="text/css"><![CDATA[.background path {fill: #808080; fill-opacity: 0}.background path:nth-child(odd) {fill-opacity: .1}.axes {font-size: 14px}.x-axis .tick .lab {font-weight: bold; dominant-baseline: hanging}.axes, .tree {font-size: 14px; text-anchor: middle}.axes line, .edge {stroke: black; fill: none}.y-axis .grid {stroke: #FAFAFA}.node > .sym {fill: black; stroke: none}.site > .sym {stroke: black}.mut text {fill: red; font-style: italic}.mut.extra text {fill: hotpink}.mut line {fill: none; stroke: none}.mut .sym {fill: none; stroke: red}.mut.extra .sym {stroke: hotpink}.node .mut .sym {stroke-width: 1.5px}.tree text, .tree-sequence text {dominant-baseline: central}.plotbox .lab.lft {text-anchor: end}.plotbox .lab.rgt {text-anchor: start}]]></style></defs><g class="tree-sequence"><g class="plotbox trees"><g class="tree t0" transform="translate(20 0)"><g class="plotbox"><g class="c2 node n18 p0 root" transform="translate(377.75 26.8)"><g class="a18 c2 node n16 p0" transform="translate(150.75 406.796)"><g class="a16 i1 leaf node n1 p0 sample" transform="translate(-112.5 324.604)"><path class="edge" d="M 0 0 V -324.604 H 112.5"/><rect class="sym" height="6" width="6" x="-3" y="-3"/><text class="lab" transform="translate(0 11)">1: 0, 1</text></g><g class="a16 c2 node n14 p0" transform="translate(112.5 194.015)"><g class="a14 i5 leaf node n5 p0 sample" transform="translate(63 130.589)"><path class="edge" d="M 0 0 V -130.589 H -63"/><rect class="sym" height="6" width="6" x="-3" y="-3"/><text class="lab" transform="translate(0 11)">5: 0, 1</text></g><g class="a14 c2 node n12 p0" transform="translate(-63 66.4034)"><g class="a12 i4 leaf node n4 p0 sample" transform="translate(54 64.1858)"><path class="edge" d="M 0 0 V -64.1858 H -54"/><rect class="sym" height="6" width="6" x="-3" y="-3"/><text class="lab" transform="translate(0 11)">4: 0, 1</text></g><g class="a12 c2 node n11 p0" transform="translate(-54 17.3947)"><g class="a11 i2 leaf node n2 p0 sample" transform="translate(-36 46.7911)"><path class="edge" d="M 0 0 V -46.7911 H 36"/><rect class="sym" height="6" width="6" x="-3" y="-3"/><text class="lab" transform="translate(0 11)">2: 0, 1</text></g><g class="a11 i8 leaf node n8 p0 sample" transform="translate(36 46.7911)"><path class="edge" d="M 0 0 V -46.7911 H -36"/><rect class="sym" height="6" width="6" x="-3" y="-3"/><text class="lab" transform="translate(0 11)">8: 0, 1</text></g><path class="edge" d="M 0 0 V -17.3947 H 54"/><circle class="sym" cx="0" cy="0" r="3"/><text class="lab lft" transform="translate(-3 -7.0)">11: 1189, 2</text></g><path class="edge" d="M 0 0 V -66.4034 H 63"/><circle class="sym" cx="0" cy="0" r="3"/><text class="lab lft" transform="translate(-3 -7.0)">12: 1632, 3</text></g><path class="edge" d="M 0 0 V -194.015 H -112.5"/><circle class="sym" cx="0" cy="0" r="3"/><text class="lab rgt" transform="translate(3 -7.0)">14: 3320, 4</text></g><path class="edge" d="M 0 0 V -406.796 H -150.75"/><circle class="sym" cx="0" cy="0" r="3"/><text class="lab rgt" transform="translate(3 -7.0)">16: 8253, 5</text></g><g class="a18 c2 node n17 p0" transform="translate(-150.75 128.482)"><g class="a17 c2 node n13 p0" transform="translate(81 505.095)"><g class="a13 i7 leaf node n7 p0 sample" transform="translate(-36 97.8234)"><path class="edge" d="M 0 0 V -97.8234 H 36"/><rect class="sym" height="6" width="6" x="-3" y="-3"/><text class="lab" transform="translate(0 11)">7: 0, 1</text></g><g class="a13 i9 leaf node n9 p0 sample" transform="translate(36 97.8234)"><path class="edge" d="M 0 0 V -97.8234 H -36"/><rect class="sym" height="6" width="6" x="-3" y="-3"/><text class="lab" transform="translate(0 11)">9: 0, 1</text></g><path class="edge" d="M 0 0 V -505.095 H -81"/><circle class="sym" cx="0" cy="0" r="3"/><text class="lab rgt" transform="translate(3 -7.0)">13: 2487, 2</text></g><g class="a17 c2 node n15 p0" transform="translate(-81 386.434)"><g class="a15 i6 leaf node n6 p0 sample" transform="translate(54 216.484)"><path class="edge" d="M 0 0 V -216.484 H -54"/><rect class="sym" height="6" width="6" x="-3" y="-3"/><text class="lab" transform="translate(0 11)">6: 0, 1</text></g><g class="a15 c2 node n10 p0" transform="translate(-54 179.729)"><g class="a10 i0 leaf node n0 p0 sample" transform="translate(-36 36.755)"><path class="edge" d="M 0 0 V -36.755 H 36"/><rect class="sym" height="6" width="6" x="-3" y="-3"/><text class="lab" transform="translate(0 11)">0: 0, 1</text></g><g class="a10 i3 leaf node n3 p0 sample" transform="translate(36 36.755)"><path class="edge" d="M 0 0 V -36.755 H -36"/><rect class="sym" height="6" width="6" x="-3" y="-3"/><text class="lab" transform="translate(0 11)">3: 0, 1</text></g><path class="edge" d="M 0 0 V -179.729 H 54"/><circle class="sym" cx="0" cy="0" r="3"/><text class="lab lft" transform="translate(-3 -7.0)">10: 934, 2</text></g><path class="edge" d="M 0 0 V -386.434 H 81"/><circle class="sym" cx="0" cy="0" r="3"/><text class="lab lft" transform="translate(-3 -7.0)">15: 5504, 3</text></g><path class="edge" d="M 0 0 V -128.482 H 150.75"/><circle class="sym" cx="0" cy="0" r="3"/><text class="lab lft" transform="translate(-3 -7.0)">17: 15330, 5</text></g><circle class="sym" cx="0" cy="0" r="3"/><text class="lab" transform="translate(0 -11)">18: 18597, 10</text></g></g></g></g></g></svg>