<svg xmlns="http://www.w3.org/2000/svg" xmlns:ev="http://www.w3.org/2001/xml-events" xmlns:xlink="http://www.w3.org/1999/xlink" baseProfile="full" height="800" version="1.1" width="800"><defs><style type="text/css"><![CDATA[.background path {fill: #808080; fill-opacity: 0}.background path:nth-child(odd) {fill-opacity: .1}.axes {font-size: 14px}.x-axis .tick .lab {font-weight: bold; dominant-baseline: hanging}.axes, .tree {font-size: 14px; text-anchor: middle}.axes line, .edge {stroke: black; fill: none}.y-axis .grid {stroke: #FAFAFA}.node > .sym {fill: black; stroke: none}.site > .sym {stroke: black}.mut text {fill: red; font-style: italic}.mut.extra text {fill: hotpink}.mut line {fill: none; stroke: none}.mut .sym {fill: none; stroke: red}.mut.extra .sym {stroke: hotpink}.node .mut .sym {stroke-width: 1.5px}.tree text, .tree-sequence text {dominant-baseline: central}.plotbox .lab.lft {text-anchor: end}.plotbox .lab.rgt {text-anchor: start}]]></style></defs><g class="tree-sequence"><g class="axes"><g class="x-axis"><g transform="translate(400,800)"><text class="lab" text-anchor="middle" transform="translate(0 -11)">Genome position</text></g><line x1="20" x2="780" y1="763.2" y2="763.2"/><g class="ticks"><g class="tick" transform="translate(20 763.2)"><line x1="0" x2="0" y1="-5" y2="5"/><g transform="translate(0,6)"><text class="lab">0</text></g></g><g class="tick" transform="translate(172 763.2)"><line x1="0" x2="0" y1="-5" y2="5"/><g transform="translate(0,6)"><text class="lab">232</text></g></g><g class="tick" transform="translate(324 763.2)"><line x1="0" x2="0" y1="-5" y2="5"/><g transform="translate(0,6)"><text class="lab">344</text></g></g><g class="tick" transform="translate(476 763.2)"><line x1="0" x2="0" y1="-5" y2="5"/><g transform="translate(0,6)"><text class="lab">445</text></g></g><g class="tick" transform="translate(628 763.2)"><line x1="0" x2="0" y1="-5" y2="5"/><g transform="translate(0,6)"><text class="lab">763</text></g></g><g class="tick" transform="translate(780 763.2)"><line x1="0" x2="0" y1="-5" y2="5"/><g transform="translate(0,6)"><text class="lab">1000</text></g></g></g></g></g><g class="plotbox trees"><g class="tree t0" transform="translate(20 0)"><g class="plotbox"><g class="c2 node n21 p0 root" transform="translate(69.175 26.8)"><g class="a21 c2 node n12 p0" transform="translate(-35.175 662.364)"><g class="a12 i0 leaf node n0 p0 sample" transform="translate(-8.4 32.2365)"><path class="edge" d="M 0 0 V -32.2365 H 8.4"/><rect class="sym" height="6" width="6" x="-3" y="-3"/><text class="lab" transform="translate(0 11)">0: 0</text></g><g class="a12 c2 node n10 p0" transform="translate(8.4 28.1501)"><g class="a10 i1 leaf node n1 p0 sample" transform="translate(-5.6 4.08643)"><path class="edge" d="M 0 0 V -4.08643 H 5.6"/><rect class="sym" height="6" width="6" x="-3" y="-3"/><text class="lab" transform="translate(0 11)">1: 0</text></g><g class="a10 i2 leaf node n2 p0 sample" transform="translate(5.6 4.08643)"><path class="edge" d="M 0 0 V -4.08643 H -5.6"/><rect class="sym" height="6" width="6" x="-3" y="-3"/><text class="lab" transform="translate(0 11)">2: 0</text></g><path class="edge" d="M 0 0 V -28.1501 H -8.4"/><circle class="sym" cx="0" cy="0" r="3"/><text class="lab rgt" transform="translate(3 -7.0)">10: 119</text></g><path class="edge" d="M 0 0 V -662.364 H 35.175"/><circle class="sym" cx="0" cy="0" r="3"/><text class="lab lft" transform="translate(-3 -7.0)">12: 942</text></g><g class="a21 c2 node n18 p0" transform="translate(35.175 396.725)"><g class="a18 c2 node n13 p0" transform="translate(16.45 252.133)"><g class="a13 i5 leaf node n5 p0 sample" transform="translate(-5.6 45.7423)"><path class="edge" d="M 0 0 V -45.7423 H 5.6"/><rect class="sym" height="6" width="6" x="-3" y="-3"/><text class="lab" transform="translate(0 11)">5: 0</text></g><g class="a13 i8 leaf node n8 p0 sample" transform="translate(5.6 45.7423)"><path class="edge" d="M 0 0 V -45.7423 H -5.6"/><rect class="sym" height="6" width="6" x="-3" y="-3"/><text class="lab" transform="translate(0 11)">8: 0</text></g><path class="edge" d="M 0 0 V -252.133 H -16.45"/><circle class="sym" cx="0" cy="0" r="3"/><text class="lab rgt" transform="translate(3 -7.0)">13: 1337</text></g><g class="a18 c2 node n16 p0" transform="translate(-16.45 181.04)"><g class="a16 i4 leaf node n4 p0 sample" transform="translate(16.1 116.835)"><path class="edge" d="M 0 0 V -116.835 H -16.1"/><rect class="sym" height="6" width="6" x="-3" y="-3"/><text class="lab" transform="translate(0 11)">4: 0</text></g><g class="a16 c2 node n15 p0" transform="translate(-16.1 4.86952)"><g class="a15 i3 leaf node n3 p0 sample" transform="translate(-12.6 111.965)"><path class="edge" d="M 0 0 V -111.965 H 12.6"/><rect class="sym" height="6" width="6" x="-3" y="-3"/><text class="lab" transform="translate(0 11)">3: 0</text></g><g class="a15 c2 node n14 p0" transform="translate(12.6 6.59515)"><g class="a14 i7 leaf node n7 p0 sample" transform="translate(8.4 105.37)"><path class="edge" d="M 0 0 V -105.37 H -8.4"/><rect class="sym" height="6" width="6" x="-3" y="-3"/><text class="lab" transform="translate(0 11)">7: 0</text></g><g class="a14 c2 node n11 p0" transform="translate(-8.4 83.4216)"><g class="a11 i6 leaf node n6 p0 sample" transform="translate(-5.6 21.9485)"><path class="edge" d="M 0 0 V -21.9485 H 5.6"/><rect class="sym" height="6" width="6" x="-3" y="-3"/><text class="lab" transform="translate(0 11)">6: 0</text></g><g class="a11 i9 leaf node n9 p0 sample" transform="translate(5.6 21.9485)"><path class="edge" d="M 0 0 V -21.9485 H -5.6"/><rect class="sym" height="6" width="6" x="-3" y="-3"/><text class="lab" transform="translate(0 11)">9: 0</text></g><path class="edge" d="M 0 0 V -83.4216 H 8.4"/><circle class="sym" cx="0" cy="0" r="3"/><text class="lab lft" transform="translate(-3 -7.0)">11: 641</text></g><path class="edge" d="M 0 0 V -6.59515 H -12.6"/><circle class="sym" cx="0" cy="0" r="3"/><text class="lab rgt" transform="translate(3 -7.0)">14: 3081</text></g><path class="edge" d="M 0 0 V -4.86952 H 16.1"/><circle class="sym" cx="0" cy="0" r="3"/><text class="lab lft" transform="translate(-3 -7.0)">15: 3274</text></g><path class="edge" d="M 0 0 V -181.04 H 16.45"/><circle class="sym" cx="0" cy="0" r="3"/><text class="lab lft" transform="translate(-3 -7.0)">16: 3416</text></g><path class="edge" d="M 0 0 V -396.725 H -35.175"/><circle class="sym" cx="0" cy="0" r="3"/><text class="lab rgt" transform="translate(3 -7.0)">18: 8711</text></g><circle class="sym" cx="0" cy="0" r="3"/><text class="lab" transform="translate(0 -11)">21: 20314</text></g></g></g><g class="tree t1" transform="translate(172 0)"><g class="plotbox"><g class="c2 node n21 p0 root" transform="translate(79.85 26.8)"><g class="a21 c2 node n16 p0" transform="translate(30.45 577.765)"><g class="a16 i4 leaf node n4 p0 sample" transform="translate(16.1 116.835)"><path class="edge" d="M 0 0 V -116.835 H -16.1"/><rect class="sym" height="6" width="6" x="-3" y="-3"/><text class="lab" transform="translate(0 11)">4: 0</text></g><g class="a16 c2 node n15 p0" transform="translate(-16.1 4.86952)"><g class="a15 i3 leaf node n3 p0 sample" transform="translate(-12.6 111.965)"><path class="edge" d="M 0 0 V -111.965 H 12.6"/><rect class="sym" height="6" width="6" x="-3" y="-3"/><text class="lab" transform="translate(0 11)">3: 0</text></g><g class="a15 c2 node n14 p0" transform="translate(12.6 6.59515)"><g class="a14 i7 leaf node n7 p0 sample" transform="translate(8.4 105.37)"><path class="edge" d="M 0 0 V -105.37 H -8.4"/><rect class="sym" height="6" width="6" x="-3" y="-3"/><text class="lab" transform="translate(0 11)">7: 0</text></g><g class="a14 c2 node n11 p0" transform="translate(-8.4 83.4216)"><g class="a11 i6 leaf node n6 p0 sample" transform="translate(-5.6 21.9485)"><path class="edge" d="M 0 0 V -21.9485 H 5.6"/><rect class="sym" height="6" width="6" x="-3" y="-3"/><text class="lab" transform="translate(0 11)">6: 0</text></g><g class="a11 i9 leaf node n9 p0 sample" transform="translate(5.6 21.9485)"><path class="edge" d="M 0 0 V -21.9485 H -5.6"/><rect class="sym" height="6" width="6" x="-3" y="-3"/><text class="lab" transform="translate(0 11)">9: 0</text></g><path class="edge" d="M 0 0 V -83.4216 H 8.4"/><circle class="sym" cx="0" cy="0" r="3"/><text class="lab lft" transform="translate(-3 -7.0)">11: 641</text></g><path class="edge" d="M 0 0 V -6.59515 H -12.6"/><circle class="sym" cx="0" cy="0" r="3"/><text class="lab rgt" transform="translate(3 -7.0)">14: 3081</text></g><path class="edge" d="M 0 0 V -4.86952 H 16.1"/><circle class="sym" cx="0" cy="0" r="3"/><text class="lab lft" transform="translate(-3 -7.0)">15: 3274</text></g><path class="edge" d="M 0 0 V -577.765 H -30.45"/><circle class="sym" cx="0" cy="0" r="3"/><text class="lab rgt" transform="translate(3 -7.0)">16: 3416</text></g><g class="a21 c2 node n17 p0" transform="translate(-30.45 530.117)"><g class="a17 c2 node n12 p0" transform="translate(-15.4 132.246)"><g class="a12 i0 leaf node n0 p0 sample" transform="translate(-8.4 32.2365)"><path class="edge" d="M 0 0 V -32.2365 H 8.4"/><rect class="sym" height="6" width="6" x="-3" y="-3"/><text class="lab" transform="translate(0 11)">0: 0</text></g><g class="a12 c2 node n10 p0" transform="translate(8.4 28.1501)"><g class="a10 i1 leaf node n1 p0 sample" transform="translate(-5.6 4.08643)"><path class="edge" d="M 0 0 V -4.08643 H 5.6"/><rect class="sym" height="6" width="6" x="-3" y="-3"/><text class="lab" transform="translate(0 11)">1: 0</text></g><g class="a10 i2 leaf node n2 p0 sample" transform="translate(5.6 4.08643)"><path class="edge" d="M 0 0 V -4.08643 H -5.6"/><rect class="sym" height="6" width="6" x="-3" y="-3"/><text class="lab" transform="translate(0 11)">2: 0</text></g><path class="edge" d="M 0 0 V -28.1501 H -8.4"/><circle class="sym" cx="0" cy="0" r="3"/><text class="lab rgt" transform="translate(3 -7.0)">10: 119</text></g><path class="edge" d="M 0 0 V -132.246 H 15.4"/><circle class="sym" cx="0" cy="0" r="3"/><text class="lab lft" transform="translate(-3 -7.0)">12: 942</text></g><g class="a17 c2 node n13 p0" transform="translate(15.4 118.741)"><g class="a13 i5 leaf node n5 p0 sample" transform="translate(-5.6 45.7423)"><path class="edge" d="M 0 0 V -45.7423 H 5.6"/><rect class="sym" height="6" width="6" x="-3" y="-3"/><text class="lab" transform="translate(0 11)">5: 0</text></g><g class="a13 i8 leaf node n8 p0 sample" transform="translate(5.6 45.7423)"><path class="edge" d="M 0 0 V -45.7423 H -5.6"/><rect class="sym" height="6" width="6" x="-3" y="-3"/><text class="lab" transform="translate(0 11)">8: 0</text></g><path class="edge" d="M 0 0 V -118.741 H -15.4"/><circle class="sym" cx="0" cy="0" r="3"/><text class="lab rgt" transform="translate(3 -7.0)">13: 1337</text></g><path class="edge" d="M 0 0 V -530.117 H 30.45"/><circle class="sym" cx="0" cy="0" r="3"/><text class="lab lft" transform="translate(-3 -7.0)">17: 4810</text></g><circle class="sym" cx="0" cy="0" r="3"/><text class="lab" transform="translate(0 -11)">21: 20314</text></g></g></g><g class="tree t2" transform="translate(324 0)"><g class="plotbox"><g class="c2 node n20 p0 root" transform="translate(79.85 121.791)"><g class="a20 c2 node n16 p0" transform="translate(30.45 482.774)"><g class="a16 i4 leaf node n4 p0 sample" transform="translate(16.1 116.835)"><path class="edge" d="M 0 0 V -116.835 H -16.1"/><rect class="sym" height="6" width="6" x="-3" y="-3"/><text class="lab" transform="translate(0 11)">4: 0</text></g><g class="a16 c2 node n15 p0" transform="translate(-16.1 4.86952)"><g class="a15 i3 leaf node n3 p0 sample" transform="translate(-12.6 111.965)"><path class="edge" d="M 0 0 V -111.965 H 12.6"/><rect class="sym" height="6" width="6" x="-3" y="-3"/><text class="lab" transform="translate(0 11)">3: 0</text></g><g class="a15 c2 node n14 p0" transform="translate(12.6 6.59515)"><g class="a14 i7 leaf node n7 p0 sample" transform="translate(8.4 105.37)"><path class="edge" d="M 0 0 V -105.37 H -8.4"/><rect class="sym" height="6" width="6" x="-3" y="-3"/><text class="lab" transform="translate(0 11)">7: 0</text></g><g class="a14 c2 node n11 p0" transform="translate(-8.4 83.4216)"><g class="a11 i6 leaf node n6 p0 sample" transform="translate(-5.6 21.9485)"><path class="edge" d="M 0 0 V -21.9485 H 5.6"/><rect class="sym" height="6" width="6" x="-3" y="-3"/><text class="lab" transform="translate(0 11)">6: 0</text></g><g class="a11 i9 leaf node n9 p0 sample" transform="translate(5.6 21.9485)"><path class="edge" d="M 0 0 V -21.9485 H -5.6"/><rect class="sym" height="6" width="6" x="-3" y="-3"/><text class="lab" transform="translate(0 11)">9: 0</text></g><path class="edge" d="M 0 0 V -83.4216 H 8.4"/><circle class="sym" cx="0" cy="0" r="3"/><text class="lab lft" transform="translate(-3 -7.0)">11: 641</text></g><path class="edge" d="M 0 0 V -6.59515 H -12.6"/><circle class="sym" cx="0" cy="0" r="3"/><text class="lab rgt" transform="translate(3 -7.0)">14: 3081</text></g><path class="edge" d="M 0 0 V -4.86952 H 16.1"/><circle class="sym" cx="0" cy="0" r="3"/><text class="lab lft" transform="translate(-3 -7.0)">15: 3274</text></g><path class="edge" d="M 0 0 V -482.774 H -30.45"/><circle class="sym" cx="0" cy="0" r="3"/><text class="lab rgt" transform="translate(3 -7.0)">16: 3416</text></g><g class="a20 c2 node n17 p0" transform="translate(-30.45 435.126)"><g class="a17 c2 node n12 p0" transform="translate(-15.4 132.246)"><g class="a12 i0 leaf node n0 p0 sample" transform="translate(-8.4 32.2365)"><path class="edge" d="M 0 0 V -32.2365 H 8.4"/><rect class="sym" height="6" width="6" x="-3" y="-3"/><text class="lab" transform="translate(0 11)">0: 0</text></g><g class="a12 c2 node n10 p0" transform="translate(8.4 28.1501)"><g class="a10 i1 leaf node n1 p0 sample" transform="translate(-5.6 4.08643)"><path class="edge" d="M 0 0 V -4.08643 H 5.6"/><rect class="sym" height="6" width="6" x="-3" y="-3"/><text class="lab" transform="translate(0 11)">1: 0</text></g><g class="a10 i2 leaf node n2 p0 sample" transform="translate(5.6 4.08643)"><path class="edge" d="M 0 0 V -4.08643 H -5.6"/><rect class="sym" height="6" width="6" x="-3" y="-3"/><text class="lab" transform="translate(0 11)">2: 0</text></g><path class="edge" d="M 0 0 V -28.1501 H -8.4"/><circle class="sym" cx="0" cy="0" r="3"/><text class="lab rgt" transform="translate(3 -7.0)">10: 119</text></g><path class="edge" d="M 0 0 V -132.246 H 15.4"/><circle class="sym" cx="0" cy="0" r="3"/><text class="lab lft" transform="translate(-3 -7.0)">12: 942</text></g><g class="a17 c2 node n13 p0" transform="translate(15.4 118.741)"><g class="a13 i5 leaf node n5 p0 sample" transform="translate(-5.6 45.7423)"><path class="edge" d="M 0 0 V -45.7423 H 5.6"/><rect class="sym" height="6" width="6" x="-3" y="-3"/><text class="lab" transform="translate(0 11)">5: 0</text></g><g class="a13 i8 leaf node n8 p0 sample" transform="translate(5.6 45.7423)"><path class="edge" d="M 0 0 V -45.7423 H -5.6"/><rect class="sym" height="6" width="6" x="-3" y="-3"/><text class="lab" transform="translate(0 11)">8: 0</text></g><path class="edge" d="M 0 0 V -118.741 H -15.4"/><circle class="sym" cx="0" cy="0" r="3"/><text class="lab rgt" transform="translate(3 -7.0)">13: 1337</text></g><path class="edge" d="M 0 0 V -435.126 H 30.45"/><circle class="sym" cx="0" cy="0" r="3"/><text class="lab lft" transform="translate(-3 -7.0)">17: 4810</text></g><circle class="sym" cx="0" cy="0" r="3"/><text class="lab" transform="translate(0 -11)">20: 17536</text></g></g></g><g class="tree t3" transform="translate(476 0)"><g class="plotbox"><g class="c2 node n21 p0 root" transform="translate(99.1 26.8)"><g class="a21 i4 leaf node n4 p0 sample" transform="translate(27.3 694.6)"><path class="edge" d="M 0 0 V -694.6 H -27.3"/><rect class="sym" height="6" width="6" x="-3" y="-3"/><text class="lab" transform="translate(0 11)">4: 0</text></g><g class="a21 c2 node n20 p0" transform="translate(-27.3 94.991)"><g class="a20 c2 node n17 p0" transform="translate(-22.4 435.126)"><g class="a17 c2 node n12 p0" transform="translate(-15.4 132.246)"><g class="a12 i0 leaf node n0 p0 sample" transform="translate(-8.4 32.2365)"><path class="edge" d="M 0 0 V -32.2365 H 8.4"/><rect class="sym" height="6" width="6" x="-3" y="-3"/><text class="lab" transform="translate(0 11)">0: 0</text></g><g class="a12 c2 node n10 p0" transform="translate(8.4 28.1501)"><g class="a10 i1 leaf node n1 p0 sample" transform="translate(-5.6 4.08643)"><path class="edge" d="M 0 0 V -4.08643 H 5.6"/><rect class="sym" height="6" width="6" x="-3" y="-3"/><text class="lab" transform="translate(0 11)">1: 0</text></g><g class="a10 i2 leaf node n2 p0 sample" transform="translate(5.6 4.08643)"><path class="edge" d="M 0 0 V -4.08643 H -5.6"/><rect class="sym" height="6" width="6" x="-3" y="-3"/><text class="lab" transform="translate(0 11)">2: 0</text></g><path class="edge" d="M 0 0 V -28.1501 H -8.4"/><circle class="sym" cx="0" cy="0" r="3"/><text class="lab rgt" transform="translate(3 -7.0)">10: 119</text></g><path class="edge" d="M 0 0 V -132.246 H 15.4"/><circle class="sym" cx="0" cy="0" r="3"/><text class="lab lft" transform="translate(-3 -7.0)">12: 942</text></g><g class="a17 c2 node n13 p0" transform="translate(15.4 118.741)"><g class="a13 i5 leaf node n5 p0 sample" transform="translate(-5.6 45.7423)"><path class="edge" d="M 0 0 V -45.7423 H 5.6"/><rect class="sym" height="6" width="6" x="-3" y="-3"/><text class="lab" transform="translate(0 11)">5: 0</text></g><g class="a13 i8 leaf node n8 p0 sample" transform="translate(5.6 45.7423)"><path class="edge" d="M 0 0 V -45.7423 H -5.6"/><rect class="sym" height="6" width="6" x="-3" y="-3"/><text class="lab" transform="translate(0 11)">8: 0</text></g><path class="edge" d="M 0 0 V -118.741 H -15.4"/><circle class="sym" cx="0" cy="0" r="3"/><text class="lab rgt" transform="translate(3 -7.0)">13: 1337</text></g><path class="edge" d="M 0 0 V -435.126 H 22.4"/><circle class="sym" cx="0" cy="0" r="3"/><text class="lab lft" transform="translate(-3 -7.0)">17: 4810</text></g><g class="a20 c2 node n15 p0" transform="translate(22.4 487.644)"><g class="a15 i3 leaf node n3 p0 sample" transform="translate(-12.6 111.965)"><path class="edge" d="M 0 0 V -111.965 H 12.6"/><rect class="sym" height="6" width="6" x="-3" y="-3"/><text class="lab" transform="translate(0 11)">3: 0</text></g><g class="a15 c2 node n14 p0" transform="translate(12.6 6.59515)"><g class="a14 i7 leaf node n7 p0 sample" transform="translate(8.4 105.37)"><path class="edge" d="M 0 0 V -105.37 H -8.4"/><rect class="sym" height="6" width="6" x="-3" y="-3"/><text class="lab" transform="translate(0 11)">7: 0</text></g><g class="a14 c2 node n11 p0" transform="translate(-8.4 83.4216)"><g class="a11 i6 leaf node n6 p0 sample" transform="translate(-5.6 21.9485)"><path class="edge" d="M 0 0 V -21.9485 H 5.6"/><rect class="sym" height="6" width="6" x="-3" y="-3"/><text class="lab" transform="translate(0 11)">6: 0</text></g><g class="a11 i9 leaf node n9 p0 sample" transform="translate(5.6 21.9485)"><path class="edge" d="M 0 0 V -21.9485 H -5.6"/><rect class="sym" height="6" width="6" x="-3" y="-3"/><text class="lab" transform="translate(0 11)">9: 0</text></g><path class="edge" d="M 0 0 V -83.4216 H 8.4"/><circle class="sym" cx="0" cy="0" r="3"/><text class="lab lft" transform="translate(-3 -7.0)">11: 641</text></g><path class="edge" d="M 0 0 V -6.59515 H -12.6"/><circle class="sym" cx="0" cy="0" r="3"/><text class="lab rgt" transform="translate(3 -7.0)">14: 3081</text></g><path class="edge" d="M 0 0 V -487.644 H -22.4"/><circle class="sym" cx="0" cy="0" r="3"/><text class="lab rgt" transform="translate(3 -7.0)">15: 3274</text></g><path class="edge" d="M 0 0 V -94.991 H 27.3"/><circle class="sym" cx="0" cy="0" r="3"/><text class="lab lft" transform="translate(-3 -7.0)">20: 17536</text></g><circle class="sym" cx="0" cy="0" r="3"/><text class="lab" transform="translate(0 -11)">21: 20314</text></g></g></g><g class="tree t4" transform="translate(628 0)"><g class="plotbox"><g class="c2 node n21 p0 root" transform="translate(99.1 26.8)"><g class="a21 i4 leaf node n4 p0 sample" transform="translate(27.3 694.6)"><path class="edge" d="M 0 0 V -694.6 H -27.3"/><rect class="sym" height="6" width="6" x="-3" y="-3"/><text class="lab" transform="translate(0 11)">4: 0</text></g><g class="a21 c2 node n19 p0" transform="translate(-27.3 303.027)"><g class="a19 c2 node n15 p0" transform="translate(22.4 279.608)"><g class="a15 i3 leaf node n3 p0 sample" transform="translate(-12.6 111.965)"><path class="edge" d="M 0 0 V -111.965 H 12.6"/><rect class="sym" height="6" width="6" x="-3" y="-3"/><text class="lab" transform="translate(0 11)">3: 0</text></g><g class="a15 c2 node n14 p0" transform="translate(12.6 6.59515)"><g class="a14 i7 leaf node n7 p0 sample" transform="translate(8.4 105.37)"><path class="edge" d="M 0 0 V -105.37 H -8.4"/><rect class="sym" height="6" width="6" x="-3" y="-3"/><text class="lab" transform="translate(0 11)">7: 0</text></g><g class="a14 c2 node n11 p0" transform="translate(-8.4 83.4216)"><g class="a11 i6 leaf node n6 p0 sample" transform="translate(-5.6 21.9485)"><path class="edge" d="M 0 0 V -21.9485 H 5.6"/><rect class="sym" height="6" width="6" x="-3" y="-3"/><text class="lab" transform="translate(0 11)">6: 0</text></g><g class="a11 i9 leaf node n9 p0 sample" transform="translate(5.6 21.9485)"><path class="edge" d="M 0 0 V -21.9485 H -5.6"/><rect class="sym" height="6" width="6" x="-3" y="-3"/><text class="lab" transform="translate(0 11)">9: 0</text></g><path class="edge" d="M 0 0 V -83.4216 H 8.4"/><circle class="sym" cx="0" cy="0" r="3"/><text class="lab lft" transform="translate(-3 -7.0)">11: 641</text></g><path class="edge" d="M 0 0 V -6.59515 H -12.6"/><circle class="sym" cx="0" cy="0" r="3"/><text class="lab rgt" transform="translate(3 -7.0)">14: 3081</text></g><path class="edge" d="M 0 0 V -279.608 H -22.4"/><circle class="sym" cx="0" cy="0" r="3"/><text class="lab rgt" transform="translate(3 -7.0)">15: 3274</text></g><g class="a19 c2 node n17 p0" transform="translate(-22.4 227.091)"><g class="a17 c2 node n12 p0" transform="translate(-15.4 132.246)"><g class="a12 i0 leaf node n0 p0 sample" transform="translate(-8.4 32.2365)"><path class="edge" d="M 0 0 V -32.2365 H 8.4"/><rect class="sym" height="6" width="6" x="-3" y="-3"/><text class="lab" transform="translate(0 11)">0: 0</text></g><g class="a12 c2 node n10 p0" transform="translate(8.4 28.1501)"><g class="a10 i1 leaf node n1 p0 sample" transform="translate(-5.6 4.08643)"><path class="edge" d="M 0 0 V -4.08643 H 5.6"/><rect class="sym" height="6" width="6" x="-3" y="-3"/><text class="lab" transform="translate(0 11)">1: 0</text></g><g class="a10 i2 leaf node n2 p0 sample" transform="translate(5.6 4.08643)"><path class="edge" d="M 0 0 V -4.08643 H -5.6"/><rect class="sym" height="6" width="6" x="-3" y="-3"/><text class="lab" transform="translate(0 11)">2: 0</text></g><path class="edge" d="M 0 0 V -28.1501 H -8.4"/><circle class="sym" cx="0" cy="0" r="3"/><text class="lab rgt" transform="translate(3 -7.0)">10: 119</text></g><path class="edge" d="M 0 0 V -132.246 H 15.4"/><circle class="sym" cx="0" cy="0" r="3"/><text class="lab lft" transform="translate(-3 -7.0)">12: 942</text></g><g class="a17 c2 node n13 p0" transform="translate(15.4 118.741)"><g class="a13 i5 leaf node n5 p0 sample" transform="translate(-5.6 45.7423)"><path class="edge" d="M 0 0 V -45.7423 H 5.6"/><rect class="sym" height="6" width="6" x="-3" y="-3"/><text class="lab" transform="translate(0 11)">5: 0</text></g><g class="a13 i8 leaf node n8 p0 sample" transform="translate(5.6 45.7423)"><path class="edge" d="M 0 0 V -45.7423 H -5.6"/><rect class="sym" height="6" width="6" x="-3" y="-3"/><text class="lab" transform="translate(0 11)">8: 0</text></g><path class="edge" d="M 0 0 V -118.741 H -15.4"/><circle class="sym" cx="0" cy="0" r="3"/><text class="lab rgt" transform="translate(3 -7.0)">13: 1337</text></g><path class="edge" d="M 0 0 V -227.091 H 22.4"/><circle class="sym" cx="0" cy="0" r="3"/><text class="lab lft" transform="translate(-3 -7.0)">17: 4810</text></g><path class="edge" d="M 0 0 V -303.027 H 27.3"/><circle class="sym" cx="0" cy="0" r="3"/><text class="lab lft" transform="translate(-3 -7.0)">19: 11451</text></g><circle class="sym" cx="0" cy="0" r="3"/><text class="lab" transform="translate(0 -11)">21: 20314</text></g></g></g></g></g></svg>