<svg xmlns="http://www.w3.org/2000/svg" xmlns:ev="http://www.w3.org/2001/xml-events" xmlns:xlink="http://www.w3.org/1999/xlink" baseProfile="full" height="800" version="1.1" width="800"><defs><style type="text/css"><![CDATA[.background path {fill: #808080; fill-opacity: 0}.background path:nth-child(odd) {fill-opacity: .1}.axes {font-size: 14px}.x-axis .tick .lab {font-weight: bold; dominant-baseline: hanging}.axes, .tree {font-size: 14px; text-anchor: middle}.axes line, .edge {stroke: black; fill: none}.y-axis .grid {stroke: #FAFAFA}.node > .sym {fill: black; stroke: none}.site > .sym {stroke: black}.mut text {fill: red; font-style: italic}.mut.extra text {fill: hotpink}.mut line {fill: none; stroke: none}.mut .sym {fill: none; stroke: red}.mut.extra .sym {stroke: hotpink}.node .mut .sym {stroke-width: 1.5px}.tree text, .tree-sequence text {dominant-baseline: central}.plotbox .lab.lft {text-anchor: end}.plotbox .lab.rgt {text-anchor: start}]]></style></defs><g class="tree-sequence"><g class="axes"><g class="x-axis"><g transform="translate(400,800)"><text class="lab" text-anchor="middle" transform="translate(0 -11)">Genome position</text></g><line x1="20" x2="780" y1="763.2" y2="763.2"/><g class="ticks"><g class="tick" transform="translate(20 763.2)"><line x1="0" x2="0" y1="-5" y2="5"/><g transform="translate(0,6)"><text class="lab">0</text></g></g><g class="tick" transform="translate(273.333 763.2)"><line x1="0" x2="0" y1="-5" y2="5"/><g transform="translate(0,6)"><text class="lab">355</text></g></g><g class="tick" transform="translate(526.667 763.2)"><line x1="0" x2="0" y1="-5" y2="5"/><g transform="translate(0,6)"><text class="lab">426</text></g></g><g class="tick" transform="translate(780 763.2)"><line x1="0" x2="0" y1="-5" y2="5"/><g transform="translate(0,6)"><text class="lab">1000</text></g></g></g></g></g><g class="plotbox trees"><g class="tree t0" transform="translate(20 0)"><g class="plotbox"><g class="c2 node n19 p0 root" transform="translate(130 374.1)"><g class="a19 c2 node n16 p0" transform="translate(54 234.856)"><g class="a16 c2 node n12 p0" transform="translate(-28 102.202)"><g class="a12 i2 leaf node n2 p0 sample" transform="translate(24 10.241)"><path class="edge" d="M 0 0 V -10.241 H -24"/><rect class="sym" height="6" width="6" x="-3" y="-3"/><text class="lab" transform="translate(0 11)">2: 0</text></g><g class="a12 c2 node n11 p0" transform="translate(-24 7.45246)"><g class="a11 i1 leaf node n1 p0 sample" transform="translate(-16 2.78859)"><path class="edge" d="M 0 0 V -2.78859 H 16"/><rect class="sym" height="6" width="6" x="-3" y="-3"/><text class="lab" transform="translate(0 11)">1: 0</text></g><g class="a11 c2 node n10 p0" transform="translate(16 0.377363)"><g class="a10 i3 leaf node n3 p0 sample" transform="translate(-10.6667 2.41123)"><path class="edge" d="M 0 0 V -2.41123 H 10.6667"/><rect class="sym" height="6" width="6" x="-3" y="-3"/><text class="lab" transform="translate(0 11)">3: 0</text></g><g class="a10 i6 leaf node n6 p0 sample" transform="translate(10.6667 2.41123)"><path class="edge" d="M 0 0 V -2.41123 H -10.6667"/><rect class="sym" height="6" width="6" x="-3" y="-3"/><text class="lab" transform="translate(0 11)">6: 0</text></g><path class="edge" d="M 0 0 V -0.377363 H -16"/><circle class="sym" cx="0" cy="0" r="3"/><text class="lab rgt" transform="translate(3 -7.0)">10: 72</text></g><path class="edge" d="M 0 0 V -7.45246 H 24"/><circle class="sym" cx="0" cy="0" r="3"/><text class="lab lft" transform="translate(-3 -7.0)">11: 83</text></g><path class="edge" d="M 0 0 V -102.202 H 28"/><circle class="sym" cx="0" cy="0" r="3"/><text class="lab lft" transform="translate(-3 -7.0)">12: 308</text></g><g class="a16 c2 node n15 p0" transform="translate(28 7.15051)"><g class="a15 i4 leaf node n4 p0 sample" transform="translate(-10.6667 105.293)"><path class="edge" d="M 0 0 V -105.293 H 10.6667"/><rect class="sym" height="6" width="6" x="-3" y="-3"/><text class="lab" transform="translate(0 11)">4: 0</text></g><g class="a15 i7 leaf node n7 p0 sample" transform="translate(10.6667 105.293)"><path class="edge" d="M 0 0 V -105.293 H -10.6667"/><rect class="sym" height="6" width="6" x="-3" y="-3"/><text class="lab" transform="translate(0 11)">7: 0</text></g><path class="edge" d="M 0 0 V -7.15051 H -28"/><circle class="sym" cx="0" cy="0" r="3"/><text class="lab rgt" transform="translate(3 -7.0)">15: 3170</text></g><path class="edge" d="M 0 0 V -234.856 H -54"/><circle class="sym" cx="0" cy="0" r="3"/><text class="lab rgt" transform="translate(3 -7.0)">16: 3385</text></g><g class="a19 c2 node n17 p0" transform="translate(-54 189.042)"><g class="a17 i8 leaf node n8 p0 sample" transform="translate(18.6667 158.258)"><path class="edge" d="M 0 0 V -158.258 H -18.6667"/><rect class="sym" height="6" width="6" x="-3" y="-3"/><text class="lab" transform="translate(0 11)">8: 0</text></g><g class="a17 c2 node n14 p0" transform="translate(-18.6667 106.465)"><g class="a14 i9 leaf node n9 p0 sample" transform="translate(16 51.7927)"><path class="edge" d="M 0 0 V -51.7927 H -16"/><rect class="sym" height="6" width="6" x="-3" y="-3"/><text class="lab" transform="translate(0 11)">9: 0</text></g><g class="a14 c2 node n13 p0" transform="translate(-16 36.3817)"><g class="a13 i0 leaf node n0 p0 sample" transform="translate(-10.6667 15.4109)"><path class="edge" d="M 0 0 V -15.4109 H 10.6667"/><rect class="sym" height="6" width="6" x="-3" y="-3"/><text class="lab" transform="translate(0 11)">0: 0</text></g><g class="a13 i5 leaf node n5 p0 sample" transform="translate(10.6667 15.4109)"><path class="edge" d="M 0 0 V -15.4109 H -10.6667"/><rect class="sym" height="6" width="6" x="-3" y="-3"/><text class="lab" transform="translate(0 11)">5: 0</text></g><path class="edge" d="M 0 0 V -36.3817 H 16"/><circle class="sym" cx="0" cy="0" r="3"/><text class="lab lft" transform="translate(-3 -7.0)">13: 464</text></g><path class="edge" d="M 0 0 V -106.465 H 18.6667"/><circle class="sym" cx="0" cy="0" r="3"/><text class="lab lft" transform="translate(-3 -7.0)">14: 1559</text></g><path class="edge" d="M 0 0 V -189.042 H 54"/><circle class="sym" cx="0" cy="0" r="3"/><text class="lab lft" transform="translate(-3 -7.0)">17: 4765</text></g><circle class="sym" cx="0" cy="0" r="3"/><text class="lab" transform="translate(0 -11)">19: 10456</text></g></g></g><g class="tree t1" transform="translate(273.333 0)"><g class="plotbox"><g class="c2 node n20 p0 root" transform="translate(166.333 26.8)"><g class="a20 i8 leaf node n8 p0 sample" transform="translate(56.3333 694.6)"><path class="edge" d="M 0 0 V -694.6 H -56.3333"/><rect class="sym" height="6" width="6" x="-3" y="-3"/><text class="lab" transform="translate(0 11)">8: 0</text></g><g class="a20 c2 node n19 p0" transform="translate(-56.3333 347.3)"><g class="a19 c2 node n16 p0" transform="translate(52.6667 234.856)"><g class="a16 c2 node n12 p0" transform="translate(-28 102.202)"><g class="a12 i2 leaf node n2 p0 sample" transform="translate(24 10.241)"><path class="edge" d="M 0 0 V -10.241 H -24"/><rect class="sym" height="6" width="6" x="-3" y="-3"/><text class="lab" transform="translate(0 11)">2: 0</text></g><g class="a12 c2 node n11 p0" transform="translate(-24 7.45246)"><g class="a11 i1 leaf node n1 p0 sample" transform="translate(-16 2.78859)"><path class="edge" d="M 0 0 V -2.78859 H 16"/><rect class="sym" height="6" width="6" x="-3" y="-3"/><text class="lab" transform="translate(0 11)">1: 0</text></g><g class="a11 c2 node n10 p0" transform="translate(16 0.377363)"><g class="a10 i3 leaf node n3 p0 sample" transform="translate(-10.6667 2.41123)"><path class="edge" d="M 0 0 V -2.41123 H 10.6667"/><rect class="sym" height="6" width="6" x="-3" y="-3"/><text class="lab" transform="translate(0 11)">3: 0</text></g><g class="a10 i6 leaf node n6 p0 sample" transform="translate(10.6667 2.41123)"><path class="edge" d="M 0 0 V -2.41123 H -10.6667"/><rect class="sym" height="6" width="6" x="-3" y="-3"/><text class="lab" transform="translate(0 11)">6: 0</text></g><path class="edge" d="M 0 0 V -0.377363 H -16"/><circle class="sym" cx="0" cy="0" r="3"/><text class="lab rgt" transform="translate(3 -7.0)">10: 72</text></g><path class="edge" d="M 0 0 V -7.45246 H 24"/><circle class="sym" cx="0" cy="0" r="3"/><text class="lab lft" transform="translate(-3 -7.0)">11: 83</text></g><path class="edge" d="M 0 0 V -102.202 H 28"/><circle class="sym" cx="0" cy="0" r="3"/><text class="lab lft" transform="translate(-3 -7.0)">12: 308</text></g><g class="a16 c2 node n15 p0" transform="translate(28 7.15051)"><g class="a15 i4 leaf node n4 p0 sample" transform="translate(-10.6667 105.293)"><path class="edge" d="M 0 0 V -105.293 H 10.6667"/><rect class="sym" height="6" width="6" x="-3" y="-3"/><text class="lab" transform="translate(0 11)">4: 0</text></g><g class="a15 i7 leaf node n7 p0 sample" transform="translate(10.6667 105.293)"><path class="edge" d="M 0 0 V -105.293 H -10.6667"/><rect class="sym" height="6" width="6" x="-3" y="-3"/><text class="lab" transform="translate(0 11)">7: 0</text></g><path class="edge" d="M 0 0 V -7.15051 H -28"/><circle class="sym" cx="0" cy="0" r="3"/><text class="lab rgt" transform="translate(3 -7.0)">15: 3170</text></g><path class="edge" d="M 0 0 V -234.856 H -52.6667"/><circle class="sym" cx="0" cy="0" r="3"/><text class="lab rgt" transform="translate(3 -7.0)">16: 3385</text></g><g class="a19 c2 node n14 p0" transform="translate(-52.6667 295.507)"><g class="a14 i9 leaf node n9 p0 sample" transform="translate(16 51.7927)"><path class="edge" d="M 0 0 V -51.7927 H -16"/><rect class="sym" height="6" width="6" x="-3" y="-3"/><text class="lab" transform="translate(0 11)">9: 0</text></g><g class="a14 c2 node n13 p0" transform="translate(-16 36.3817)"><g class="a13 i0 leaf node n0 p0 sample" transform="translate(-10.6667 15.4109)"><path class="edge" d="M 0 0 V -15.4109 H 10.6667"/><rect class="sym" height="6" width="6" x="-3" y="-3"/><text class="lab" transform="translate(0 11)">0: 0</text></g><g class="a13 i5 leaf node n5 p0 sample" transform="translate(10.6667 15.4109)"><path class="edge" d="M 0 0 V -15.4109 H -10.6667"/><rect class="sym" height="6" width="6" x="-3" y="-3"/><text class="lab" transform="translate(0 11)">5: 0</text></g><path class="edge" d="M 0 0 V -36.3817 H 16"/><circle class="sym" cx="0" cy="0" r="3"/><text class="lab lft" transform="translate(-3 -7.0)">13: 464</text></g><path class="edge" d="M 0 0 V -295.507 H 52.6667"/><circle class="sym" cx="0" cy="0" r="3"/><text class="lab lft" transform="translate(-3 -7.0)">14: 1559</text></g><path class="edge" d="M 0 0 V -347.3 H 56.3333"/><circle class="sym" cx="0" cy="0" r="3"/><text class="lab lft" transform="translate(-3 -7.0)">19: 10456</text></g><circle class="sym" cx="0" cy="0" r="3"/><text class="lab" transform="translate(0 -11)">20: 20913</text></g></g></g><g class="tree t2" transform="translate(526.667 0)"><g class="plotbox"><g class="c2 node n20 p0 root" transform="translate(166.333 26.8)"><g class="a20 i8 leaf node n8 p0 sample" transform="translate(56.3333 694.6)"><path class="edge" d="M 0 0 V -694.6 H -56.3333"/><rect class="sym" height="6" width="6" x="-3" y="-3"/><text class="lab" transform="translate(0 11)">8: 0</text></g><g class="a20 c2 node n18 p0" transform="translate(-56.3333 484.052)"><g class="a18 c2 node n14 p0" transform="translate(-52.6667 158.755)"><g class="a14 i9 leaf node n9 p0 sample" transform="translate(16 51.7927)"><path class="edge" d="M 0 0 V -51.7927 H -16"/><rect class="sym" height="6" width="6" x="-3" y="-3"/><text class="lab" transform="translate(0 11)">9: 0</text></g><g class="a14 c2 node n13 p0" transform="translate(-16 36.3817)"><g class="a13 i0 leaf node n0 p0 sample" transform="translate(-10.6667 15.4109)"><path class="edge" d="M 0 0 V -15.4109 H 10.6667"/><rect class="sym" height="6" width="6" x="-3" y="-3"/><text class="lab" transform="translate(0 11)">0: 0</text></g><g class="a13 i5 leaf node n5 p0 sample" transform="translate(10.6667 15.4109)"><path class="edge" d="M 0 0 V -15.4109 H -10.6667"/><rect class="sym" height="6" width="6" x="-3" y="-3"/><text class="lab" transform="translate(0 11)">5: 0</text></g><path class="edge" d="M 0 0 V -36.3817 H 16"/><circle class="sym" cx="0" cy="0" r="3"/><text class="lab lft" transform="translate(-3 -7.0)">13: 464</text></g><path class="edge" d="M 0 0 V -158.755 H 52.6667"/><circle class="sym" cx="0" cy="0" r="3"/><text class="lab lft" transform="translate(-3 -7.0)">14: 1559</text></g><g class="a18 c2 node n16 p0" transform="translate(52.6667 98.1043)"><g class="a16 c2 node n12 p0" transform="translate(-28 102.202)"><g class="a12 i2 leaf node n2 p0 sample" transform="translate(24 10.241)"><path class="edge" d="M 0 0 V -10.241 H -24"/><rect class="sym" height="6" width="6" x="-3" y="-3"/><text class="lab" transform="translate(0 11)">2: 0</text></g><g class="a12 c2 node n11 p0" transform="translate(-24 7.45246)"><g class="a11 i1 leaf node n1 p0 sample" transform="translate(-16 2.78859)"><path class="edge" d="M 0 0 V -2.78859 H 16"/><rect class="sym" height="6" width="6" x="-3" y="-3"/><text class="lab" transform="translate(0 11)">1: 0</text></g><g class="a11 c2 node n10 p0" transform="translate(16 0.377363)"><g class="a10 i3 leaf node n3 p0 sample" transform="translate(-10.6667 2.41123)"><path class="edge" d="M 0 0 V -2.41123 H 10.6667"/><rect class="sym" height="6" width="6" x="-3" y="-3"/><text class="lab" transform="translate(0 11)">3: 0</text></g><g class="a10 i6 leaf node n6 p0 sample" transform="translate(10.6667 2.41123)"><path class="edge" d="M 0 0 V -2.41123 H -10.6667"/><rect class="sym" height="6" width="6" x="-3" y="-3"/><text class="lab" transform="translate(0 11)">6: 0</text></g><path class="edge" d="M 0 0 V -0.377363 H -16"/><circle class="sym" cx="0" cy="0" r="3"/><text class="lab rgt" transform="translate(3 -7.0)">10: 72</text></g><path class="edge" d="M 0 0 V -7.45246 H 24"/><circle class="sym" cx="0" cy="0" r="3"/><text class="lab lft" transform="translate(-3 -7.0)">11: 83</text></g><path class="edge" d="M 0 0 V -102.202 H 28"/><circle class="sym" cx="0" cy="0" r="3"/><text class="lab lft" transform="translate(-3 -7.0)">12: 308</text></g><g class="a16 c2 node n15 p0" transform="translate(28 7.15051)"><g class="a15 i4 leaf node n4 p0 sample" transform="translate(-10.6667 105.293)"><path class="edge" d="M 0 0 V -105.293 H 10.6667"/><rect class="sym" height="6" width="6" x="-3" y="-3"/><text class="lab" transform="translate(0 11)">4: 0</text></g><g class="a15 i7 leaf node n7 p0 sample" transform="translate(10.6667 105.293)"><path class="edge" d="M 0 0 V -105.293 H -10.6667"/><rect class="sym" height="6" width="6" x="-3" y="-3"/><text class="lab" transform="translate(0 11)">7: 0</text></g><path class="edge" d="M 0 0 V -7.15051 H -28"/><circle class="sym" cx="0" cy="0" r="3"/><text class="lab rgt" transform="translate(3 -7.0)">15: 3170</text></g><path class="edge" d="M 0 0 V -98.1043 H -52.6667"/><circle class="sym" cx="0" cy="0" r="3"/><text class="lab rgt" transform="translate(3 -7.0)">16: 3385</text></g><path class="edge" d="M 0 0 V -484.052 H 56.3333"/><circle class="sym" cx="0" cy="0" r="3"/><text class="lab lft" transform="translate(-3 -7.0)">18: 6339</text></g><circle class="sym" cx="0" cy="0" r="3"/><text class="lab" transform="translate(0 -11)">20: 20913</text></g></g></g></g></g></svg>