<svg xmlns="http://www.w3.org/2000/svg" xmlns:ev="http://www.w3.org/2001/xml-events" xmlns:xlink="http://www.w3.org/1999/xlink" baseProfile="full" height="800" version="1.1" width="800"><defs><style type="text/css"><![CDATA[.background path {fill: #808080; fill-opacity: 0}.background path:nth-child(odd) {fill-opacity: .1}.axes {font-size: 14px}.x-axis .tick .lab {font-weight: bold; dominant-baseline: hanging}.axes, .tree {font-size: 14px; text-anchor: middle}.axes line, .edge {stroke: black; fill: none}.y-axis .grid {stroke: #FAFAFA}.node > .sym {fill: black; stroke: none}.site > .sym {stroke: black}.mut text {fill: red; font-style: italic}.mut.extra text {fill: hotpink}.mut line {fill: none; stroke: none}.mut .sym {fill: none; stroke: red}.mut.extra .sym {stroke: hotpink}.node .mut .sym {stroke-width: 1.5px}.tree text, .tree-sequence text {dominant-baseline: central}.plotbox .lab.lft {text-anchor: end}.plotbox .lab.rgt {text-anchor: start}]]></style></defs><g class="tree-sequence"><g class="plotbox trees"><g class="tree t0" transform="translate(20 0)"><g class="plotbox"><g class="c2 node n18 p0 root" transform="translate(377.75 26.8)"><g class="a18 c2 node n15 p0" transform="translate(168.75 571.025)"><g class="a15 c2 node n11 p0" transform="translate(121.5 124.616)"><g class="a11 i5 leaf node n5 p0 sample" transform="translate(-36 35.7592)"><path class="edge" d="M 0 0 V -35.7592 H 36"/><rect class="sym" height="6" width="6" x="-3" y="-3"/><text class="lab" transform="translate(0 11)">5: 0, 1</text></g><g class="a11 i6 leaf node n6 p0 sample" transform="translate(36 35.7592)"><path class="edge" d="M 0 0 V -35.7592 H -36"/><rect class="sym" height="6" width="6" x="-3" y="-3"/><text class="lab" transform="translate(0 11)">6: 0, 1</text></g><path class="edge" d="M 0 0 V -124.616 H -121.5"/><circle class="sym" cx="0" cy="0" r="3"/><text class="lab rgt" transform="translate(3 -7.0)">11: 380, 2</text></g><g class="a15 c2 node n14 p0" transform="translate(-121.5 79.1096)"><g class="a14 i1 leaf node n1 p0 sample" transform="translate(-81 81.2652)"><path class="edge" d="M 0 0 V -81.2652 H 81"/><rect class="sym" height="6" width="6" x="-3" y="-3"/><text class="lab" transform="translate(0 11)">1: 0, 1</text></g><g class="a14 c2 node n13 p0" transform="translate(81 30.574)"><g class="a13 i7 leaf node n7 p0 sample" transform="translate(54 50.6912)"><path class="edge" d="M 0 0 V -50.6912 H -54"/><rect class="sym" height="6" width="6" x="-3" y="-3"/><text class="lab" transform="translate(0 11)">7: 0, 1</text></g><g class="a13 c2 node n12 p0" transform="translate(-54 11.4583)"><g class="a12 i2 leaf node n2 p0 sample" transform="translate(-36 39.2329)"><path class="edge" d="M 0 0 V -39.2329 H 36"/><rect class="sym" height="6" width="6" x="-3" y="-3"/><text class="lab" transform="translate(0 11)">2: 0, 1</text></g><g class="a12 i4 leaf node n4 p0 sample" transform="translate(36 39.2329)"><path class="edge" d="M 0 0 V -39.2329 H -36"/><rect class="sym" height="6" width="6" x="-3" y="-3"/><text class="lab" transform="translate(0 11)">4: 0, 1</text></g><path class="edge" d="M 0 0 V -11.4583 H 54"/><circle class="sym" cx="0" cy="0" r="3"/><text class="lab lft" transform="translate(-3 -7.0)">12: 417, 2</text></g><path class="edge" d="M 0 0 V -30.574 H -81"/><circle class="sym" cx="0" cy="0" r="3"/><text class="lab rgt" transform="translate(3 -7.0)">13: 539, 3</text></g><path class="edge" d="M 0 0 V -79.1096 H 121.5"/><circle class="sym" cx="0" cy="0" r="3"/><text class="lab lft" transform="translate(-3 -7.0)">14: 865, 4</text></g><path class="edge" d="M 0 0 V -571.025 H -168.75"/><circle class="sym" cx="0" cy="0" r="3"/><text class="lab rgt" transform="translate(3 -7.0)">15: 1707, 6</text></g><g class="a18 c2 node n17 p0" transform="translate(-168.75 491.608)"><g class="a17 i8 leaf node n8 p0 sample" transform="translate(63 239.792)"><path class="edge" d="M 0 0 V -239.792 H -63"/><rect class="sym" height="6" width="6" x="-3" y="-3"/><text class="lab" transform="translate(0 11)">8: 0, 1</text></g><g class="a17 c2 node n16 p0" transform="translate(-63 7.7096)"><g class="a16 i9 leaf node n9 p0 sample" transform="translate(54 232.083)"><path class="edge" d="M 0 0 V -232.083 H -54"/><rect class="sym" height="6" width="6" x="-3" y="-3"/><text class="lab" transform="translate(0 11)">9: 0, 1</text></g><g class="a16 c2 node n10 p0" transform="translate(-54 205.66)"><g class="a10 i0 leaf node n0 p0 sample" transform="translate(-36 26.423)"><path class="edge" d="M 0 0 V -26.423 H 36"/><rect class="sym" height="6" width="6" x="-3" y="-3"/><text class="lab" transform="translate(0 11)">0: 0, 1</text></g><g class="a10 i3 leaf node n3 p0 sample" transform="translate(36 26.423)"><path class="edge" d="M 0 0 V -26.423 H -36"/><rect class="sym" height="6" width="6" x="-3" y="-3"/><text class="lab" transform="translate(0 11)">3: 0, 1</text></g><path class="edge" d="M 0 0 V -205.66 H 54"/><circle class="sym" cx="0" cy="0" r="3"/><text class="lab lft" transform="translate(-3 -7.0)">10: 281, 2</text></g><path class="edge" d="M 0 0 V -7.7096 H 63"/><circle class="sym" cx="0" cy="0" r="3"/><text class="lab lft" transform="translate(-3 -7.0)">16: 2471, 3</text></g><path class="edge" d="M 0 0 V -491.608 H 168.75"/><circle class="sym" cx="0" cy="0" r="3"/><text class="lab lft" transform="translate(-3 -7.0)">17: 2553, 4</text></g><circle class="sym" cx="0" cy="0" r="3"/><text class="lab" transform="translate(0 -11)">18: 7788, 10</text></g></g></g></g></g></svg>