<svg xmlns="http://www.w3.org/2000/svg" xmlns:ev="http://www.w3.org/2001/xml-events" xmlns:xlink="http://www.w3.org/1999/xlink" baseProfile="full" height="800" version="1.1" width="800"><defs><style type="text/css"><![CDATA[.background path {fill: #808080; fill-opacity: 0}.background path:nth-child(odd) {fill-opacity: .1}.axes {font-size: 14px}.x-axis .tick .lab {font-weight: bold; dominant-baseline: hanging}.axes, .tree {font-size: 14px; text-anchor: middle}.axes line, .edge {stroke: black; fill: none}.y-axis .grid {stroke: #FAFAFA}.node > .sym {fill: black; stroke: none}.site > .sym {stroke: black}.mut text {fill: red; font-style: italic}.mut.extra text {fill: hotpink}.mut line {fill: none; stroke: none}.mut .sym {fill: none; stroke: red}.mut.extra .sym {stroke: hotpink}.node .mut .sym {stroke-width: 1.5px}.tree text, .tree-sequence text {dominant-baseline: central}.plotbox .lab.lft {text-anchor: end}.plotbox .lab.rgt {text-anchor: start}]]></style></defs><g class="tree-sequence"><g class="axes"><g class="x-axis"><g transform="translate(400,800)"><text class="lab" text-anchor="middle" transform="translate(0 -11)">Genome position</text></g><line x1="20" x2="780" y1="763.2" y2="763.2"/><g class="ticks"><g class="tick" transform="translate(20 763.2)"><line x1="0" x2="0" y1="-5" y2="5"/><g transform="translate(0,6)"><text class="lab">0</text></g></g><g class="tick" transform="translate(400 763.2)"><line x1="0" x2="0" y1="-5" y2="5"/><g transform="translate(0,6)"><text class="lab">692</text></g></g><g class="tick" transform="translate(780 763.2)"><line x1="0" x2="0" y1="-5" y2="5"/><g transform="translate(0,6)"><text class="lab">1000</text></g></g></g></g></g><g class="plotbox trees"><g class="tree t0" transform="translate(20 0)"><g class="plotbox"><g class="c2 node n18 p0 root" transform="translate(183.625 324.643)"><g class="a18 c2 node n16 p0" transform="translate(-74.375 352.13)"><g class="a16 i7 leaf node n7 p0 sample" transform="translate(29.75 44.627)"><path class="edge" d="M 0 0 V -44.627 H -29.75"/><rect class="sym" height="6" width="6" x="-3" y="-3"/><text class="lab" transform="translate(0 11)">7: 0</text></g><g class="a16 c2 node n14 p0" transform="translate(-29.75 7.77862)"><g class="a14 i4 leaf node n4 p0 sample" transform="translate(25.5 36.8484)"><path class="edge" d="M 0 0 V -36.8484 H -25.5"/><rect class="sym" height="6" width="6" x="-3" y="-3"/><text class="lab" transform="translate(0 11)">4: 0</text></g><g class="a14 c2 node n10 p0" transform="translate(-25.5 28.3113)"><g class="a10 i0 leaf node n0 p0 sample" transform="translate(-17 8.53712)"><path class="edge" d="M 0 0 V -8.53712 H 17"/><rect class="sym" height="6" width="6" x="-3" y="-3"/><text class="lab" transform="translate(0 11)">0: 0</text></g><g class="a10 i2 leaf node n2 p0 sample" transform="translate(17 8.53712)"><path class="edge" d="M 0 0 V -8.53712 H -17"/><rect class="sym" height="6" width="6" x="-3" y="-3"/><text class="lab" transform="translate(0 11)">2: 0</text></g><path class="edge" d="M 0 0 V -28.3113 H 25.5"/><circle class="sym" cx="0" cy="0" r="3"/><text class="lab lft" transform="translate(-3 -7.0)">10: 492</text></g><path class="edge" d="M 0 0 V -7.77862 H 29.75"/><circle class="sym" cx="0" cy="0" r="3"/><text class="lab lft" transform="translate(-3 -7.0)">14: 2125</text></g><path class="edge" d="M 0 0 V -352.13 H 74.375"/><circle class="sym" cx="0" cy="0" r="3"/><text class="lab lft" transform="translate(-3 -7.0)">16: 2574</text></g><g class="a18 c2 node n17 p0" transform="translate(74.375 289.712)"><g class="a17 c2 node n13 p0" transform="translate(59.5 70.2705)"><g class="a13 i8 leaf node n8 p0 sample" transform="translate(25.5 36.7747)"><path class="edge" d="M 0 0 V -36.7747 H -25.5"/><rect class="sym" height="6" width="6" x="-3" y="-3"/><text class="lab" transform="translate(0 11)">8: 0</text></g><g class="a13 c2 node n12 p0" transform="translate(-25.5 19.8232)"><g class="a12 i3 leaf node n3 p0 sample" transform="translate(-17 16.9515)"><path class="edge" d="M 0 0 V -16.9515 H 17"/><rect class="sym" height="6" width="6" x="-3" y="-3"/><text class="lab" transform="translate(0 11)">3: 0</text></g><g class="a12 i9 leaf node n9 p0 sample" transform="translate(17 16.9515)"><path class="edge" d="M 0 0 V -16.9515 H -17"/><rect class="sym" height="6" width="6" x="-3" y="-3"/><text class="lab" transform="translate(0 11)">9: 0</text></g><path class="edge" d="M 0 0 V -19.8232 H 25.5"/><circle class="sym" cx="0" cy="0" r="3"/><text class="lab lft" transform="translate(-3 -7.0)">12: 977</text></g><path class="edge" d="M 0 0 V -70.2705 H -59.5"/><circle class="sym" cx="0" cy="0" r="3"/><text class="lab rgt" transform="translate(3 -7.0)">13: 2121</text></g><g class="a17 c2 node n15 p0" transform="translate(-59.5 63.2913)"><g class="a15 i1 leaf node n1 p0 sample" transform="translate(-25.5 43.7539)"><path class="edge" d="M 0 0 V -43.7539 H 25.5"/><rect class="sym" height="6" width="6" x="-3" y="-3"/><text class="lab" transform="translate(0 11)">1: 0</text></g><g class="a15 c2 node n11 p0" transform="translate(25.5 31.8701)"><g class="a11 i5 leaf node n5 p0 sample" transform="translate(-17 11.8838)"><path class="edge" d="M 0 0 V -11.8838 H 17"/><rect class="sym" height="6" width="6" x="-3" y="-3"/><text class="lab" transform="translate(0 11)">5: 0</text></g><g class="a11 i6 leaf node n6 p0 sample" transform="translate(17 11.8838)"><path class="edge" d="M 0 0 V -11.8838 H -17"/><rect class="sym" height="6" width="6" x="-3" y="-3"/><text class="lab" transform="translate(0 11)">6: 0</text></g><path class="edge" d="M 0 0 V -31.8701 H -25.5"/><circle class="sym" cx="0" cy="0" r="3"/><text class="lab rgt" transform="translate(3 -7.0)">11: 685</text></g><path class="edge" d="M 0 0 V -63.2913 H 59.5"/><circle class="sym" cx="0" cy="0" r="3"/><text class="lab lft" transform="translate(-3 -7.0)">15: 2524</text></g><path class="edge" d="M 0 0 V -289.712 H -74.375"/><circle class="sym" cx="0" cy="0" r="3"/><text class="lab rgt" transform="translate(3 -7.0)">17: 6175</text></g><circle class="sym" cx="0" cy="0" r="3"/><text class="lab" transform="translate(0 -11)">18: 22888</text></g></g></g><g class="tree t1" transform="translate(400 0)"><g class="plotbox"><g class="c2 node n19 p0 root" transform="translate(183.625 26.8)"><g class="a19 c2 node n16 p0" transform="translate(-74.375 649.973)"><g class="a16 i7 leaf node n7 p0 sample" transform="translate(29.75 44.627)"><path class="edge" d="M 0 0 V -44.627 H -29.75"/><rect class="sym" height="6" width="6" x="-3" y="-3"/><text class="lab" transform="translate(0 11)">7: 0</text></g><g class="a16 c2 node n14 p0" transform="translate(-29.75 7.77862)"><g class="a14 i4 leaf node n4 p0 sample" transform="translate(25.5 36.8484)"><path class="edge" d="M 0 0 V -36.8484 H -25.5"/><rect class="sym" height="6" width="6" x="-3" y="-3"/><text class="lab" transform="translate(0 11)">4: 0</text></g><g class="a14 c2 node n10 p0" transform="translate(-25.5 28.3113)"><g class="a10 i0 leaf node n0 p0 sample" transform="translate(-17 8.53712)"><path class="edge" d="M 0 0 V -8.53712 H 17"/><rect class="sym" height="6" width="6" x="-3" y="-3"/><text class="lab" transform="translate(0 11)">0: 0</text></g><g class="a10 i2 leaf node n2 p0 sample" transform="translate(17 8.53712)"><path class="edge" d="M 0 0 V -8.53712 H -17"/><rect class="sym" height="6" width="6" x="-3" y="-3"/><text class="lab" transform="translate(0 11)">2: 0</text></g><path class="edge" d="M 0 0 V -28.3113 H 25.5"/><circle class="sym" cx="0" cy="0" r="3"/><text class="lab lft" transform="translate(-3 -7.0)">10: 492</text></g><path class="edge" d="M 0 0 V -7.77862 H 29.75"/><circle class="sym" cx="0" cy="0" r="3"/><text class="lab lft" transform="translate(-3 -7.0)">14: 2125</text></g><path class="edge" d="M 0 0 V -649.973 H 74.375"/><circle class="sym" cx="0" cy="0" r="3"/><text class="lab lft" transform="translate(-3 -7.0)">16: 2574</text></g><g class="a19 c2 node n17 p0" transform="translate(74.375 587.555)"><g class="a17 c2 node n13 p0" transform="translate(59.5 70.2705)"><g class="a13 i8 leaf node n8 p0 sample" transform="translate(25.5 36.7747)"><path class="edge" d="M 0 0 V -36.7747 H -25.5"/><rect class="sym" height="6" width="6" x="-3" y="-3"/><text class="lab" transform="translate(0 11)">8: 0</text></g><g class="a13 c2 node n12 p0" transform="translate(-25.5 19.8232)"><g class="a12 i3 leaf node n3 p0 sample" transform="translate(-17 16.9515)"><path class="edge" d="M 0 0 V -16.9515 H 17"/><rect class="sym" height="6" width="6" x="-3" y="-3"/><text class="lab" transform="translate(0 11)">3: 0</text></g><g class="a12 i9 leaf node n9 p0 sample" transform="translate(17 16.9515)"><path class="edge" d="M 0 0 V -16.9515 H -17"/><rect class="sym" height="6" width="6" x="-3" y="-3"/><text class="lab" transform="translate(0 11)">9: 0</text></g><path class="edge" d="M 0 0 V -19.8232 H 25.5"/><circle class="sym" cx="0" cy="0" r="3"/><text class="lab lft" transform="translate(-3 -7.0)">12: 977</text></g><path class="edge" d="M 0 0 V -70.2705 H -59.5"/><circle class="sym" cx="0" cy="0" r="3"/><text class="lab rgt" transform="translate(3 -7.0)">13: 2121</text></g><g class="a17 c2 node n15 p0" transform="translate(-59.5 63.2913)"><g class="a15 i1 leaf node n1 p0 sample" transform="translate(-25.5 43.7539)"><path class="edge" d="M 0 0 V -43.7539 H 25.5"/><rect class="sym" height="6" width="6" x="-3" y="-3"/><text class="lab" transform="translate(0 11)">1: 0</text></g><g class="a15 c2 node n11 p0" transform="translate(25.5 31.8701)"><g class="a11 i5 leaf node n5 p0 sample" transform="translate(-17 11.8838)"><path class="edge" d="M 0 0 V -11.8838 H 17"/><rect class="sym" height="6" width="6" x="-3" y="-3"/><text class="lab" transform="translate(0 11)">5: 0</text></g><g class="a11 i6 leaf node n6 p0 sample" transform="translate(17 11.8838)"><path class="edge" d="M 0 0 V -11.8838 H -17"/><rect class="sym" height="6" width="6" x="-3" y="-3"/><text class="lab" transform="translate(0 11)">6: 0</text></g><path class="edge" d="M 0 0 V -31.8701 H -25.5"/><circle class="sym" cx="0" cy="0" r="3"/><text class="lab rgt" transform="translate(3 -7.0)">11: 685</text></g><path class="edge" d="M 0 0 V -63.2913 H 59.5"/><circle class="sym" cx="0" cy="0" r="3"/><text class="lab lft" transform="translate(-3 -7.0)">15: 2524</text></g><path class="edge" d="M 0 0 V -587.555 H -74.375"/><circle class="sym" cx="0" cy="0" r="3"/><text class="lab rgt" transform="translate(3 -7.0)">17: 6175</text></g><circle class="sym" cx="0" cy="0" r="3"/><text class="lab" transform="translate(0 -11)">19: 40070</text></g></g></g></g></g></svg>