<svg xmlns="http://www.w3.org/2000/svg" xmlns:ev="http://www.w3.org/2001/xml-events" xmlns:xlink="http://www.w3.org/1999/xlink" baseProfile="full" height="800" version="1.1" width="800"><defs><style type="text/css"><![CDATA[.background path {fill: #808080; fill-opacity: 0}.background path:nth-child(odd) {fill-opacity: .1}.axes {font-size: 14px}.x-axis .tick .lab {font-weight: bold; dominant-baseline: hanging}.axes, .tree {font-size: 14px; text-anchor: middle}.axes line, .edge {stroke: black; fill: none}.y-axis .grid {stroke: #FAFAFA}.node > .sym {fill: black; stroke: none}.site > .sym {stroke: black}.mut text {fill: red; font-style: italic}.mut.extra text {fill: hotpink}.mut line {fill: none; stroke: none}.mut .sym {fill: none; stroke: red}.mut.extra .sym {stroke: hotpink}.node .mut .sym {stroke-width: 1.5px}.tree text, .tree-sequence text {dominant-baseline: central}.plotbox .lab.lft {text-anchor: end}.plotbox .lab.rgt {text-anchor: start}]]></style></defs><g class="tree-sequence"><g class="axes"><g class="x-axis"><g transform="translate(400,800)"><text class="lab" text-anchor="middle" transform="translate(0 -11)">Genome position</text></g><line x1="20" x2="780" y1="763.2" y2="763.2"/><g class="ticks"><g class="tick" transform="translate(20 763.2)"><line x1="0" x2="0" y1="-5" y2="5"/><g transform="translate(0,6)"><text class="lab">0</text></g></g><g class="tick" transform="translate(400 763.2)"><line x1="0" x2="0" y1="-5" y2="5"/><g transform="translate(0,6)"><text class="lab">399</text></g></g><g class="tick" transform="translate(780 763.2)"><line x1="0" x2="0" y1="-5" y2="5"/><g transform="translate(0,6)"><text class="lab">1000</text></g></g></g></g></g><g class="plotbox trees"><g class="tree t0" transform="translate(20 0)"><g class="plotbox"><g class="c2 node n19 p0 root" transform="translate(251.625 26.8)"><g class="a19 c2 node n16 p0" transform="translate(74.375 585.362)"><g class="a16 i3 leaf node n3 p0 sample" transform="translate(-17 109.238)"><path class="edge" d="M 0 0 V -109.238 H 17"/><rect class="sym" height="6" width="6" x="-3" y="-3"/><text class="lab" transform="translate(0 11)">3: 0</text></g><g class="a16 i5 leaf node n5 p0 sample" transform="translate(17 109.238)"><path class="edge" d="M 0 0 V -109.238 H -17"/><rect class="sym" height="6" width="6" x="-3" y="-3"/><text class="lab" transform="translate(0 11)">5: 0</text></g><path class="edge" d="M 0 0 V -585.362 H -74.375"/><circle class="sym" cx="0" cy="0" r="3"/><text class="lab rgt" transform="translate(3 -7.0)">16: 2974</text></g><g class="a19 c2 node n18 p0" transform="translate(-74.375 434.935)"><g class="a18 c2 node n14 p0" transform="translate(68 204.359)"><g class="a14 i6 leaf node n6 p0 sample" transform="translate(29.75 55.3064)"><path class="edge" d="M 0 0 V -55.3064 H -29.75"/><rect class="sym" height="6" width="6" x="-3" y="-3"/><text class="lab" transform="translate(0 11)">6: 0</text></g><g class="a14 c2 node n13 p0" transform="translate(-29.75 5.90624)"><g class="a13 i8 leaf node n8 p0 sample" transform="translate(25.5 49.4001)"><path class="edge" d="M 0 0 V -49.4001 H -25.5"/><rect class="sym" height="6" width="6" x="-3" y="-3"/><text class="lab" transform="translate(0 11)">8: 0</text></g><g class="a13 c2 node n10 p0" transform="translate(-25.5 34.6185)"><g class="a10 i1 leaf node n1 p0 sample" transform="translate(-17 14.7816)"><path class="edge" d="M 0 0 V -14.7816 H 17"/><rect class="sym" height="6" width="6" x="-3" y="-3"/><text class="lab" transform="translate(0 11)">1: 0</text></g><g class="a10 i2 leaf node n2 p0 sample" transform="translate(17 14.7816)"><path class="edge" d="M 0 0 V -14.7816 H -17"/><rect class="sym" height="6" width="6" x="-3" y="-3"/><text class="lab" transform="translate(0 11)">2: 0</text></g><path class="edge" d="M 0 0 V -34.6185 H 25.5"/><circle class="sym" cx="0" cy="0" r="3"/><text class="lab lft" transform="translate(-3 -7.0)">10: 402</text></g><path class="edge" d="M 0 0 V -5.90624 H 29.75"/><circle class="sym" cx="0" cy="0" r="3"/><text class="lab lft" transform="translate(-3 -7.0)">13: 1345</text></g><path class="edge" d="M 0 0 V -204.359 H -68"/><circle class="sym" cx="0" cy="0" r="3"/><text class="lab rgt" transform="translate(3 -7.0)">14: 1506</text></g><g class="a18 c2 node n15 p0" transform="translate(-68 200.393)"><g class="a15 i4 leaf node n4 p0 sample" transform="translate(29.75 59.2722)"><path class="edge" d="M 0 0 V -59.2722 H -29.75"/><rect class="sym" height="6" width="6" x="-3" y="-3"/><text class="lab" transform="translate(0 11)">4: 0</text></g><g class="a15 c2 node n12 p0" transform="translate(-29.75 24.7883)"><g class="a12 i7 leaf node n7 p0 sample" transform="translate(25.5 34.4839)"><path class="edge" d="M 0 0 V -34.4839 H -25.5"/><rect class="sym" height="6" width="6" x="-3" y="-3"/><text class="lab" transform="translate(0 11)">7: 0</text></g><g class="a12 c2 node n11 p0" transform="translate(-25.5 10.8919)"><g class="a11 i0 leaf node n0 p0 sample" transform="translate(-17 23.592)"><path class="edge" d="M 0 0 V -23.592 H 17"/><rect class="sym" height="6" width="6" x="-3" y="-3"/><text class="lab" transform="translate(0 11)">0: 0</text></g><g class="a11 i9 leaf node n9 p0 sample" transform="translate(17 23.592)"><path class="edge" d="M 0 0 V -23.592 H -17"/><rect class="sym" height="6" width="6" x="-3" y="-3"/><text class="lab" transform="translate(0 11)">9: 0</text></g><path class="edge" d="M 0 0 V -10.8919 H 25.5"/><circle class="sym" cx="0" cy="0" r="3"/><text class="lab lft" transform="translate(-3 -7.0)">11: 642</text></g><path class="edge" d="M 0 0 V -24.7883 H 29.75"/><circle class="sym" cx="0" cy="0" r="3"/><text class="lab lft" transform="translate(-3 -7.0)">12: 939</text></g><path class="edge" d="M 0 0 V -200.393 H 68"/><circle class="sym" cx="0" cy="0" r="3"/><text class="lab lft" transform="translate(-3 -7.0)">15: 1613</text></g><path class="edge" d="M 0 0 V -434.935 H 74.375"/><circle class="sym" cx="0" cy="0" r="3"/><text class="lab lft" transform="translate(-3 -7.0)">18: 7070</text></g><circle class="sym" cx="0" cy="0" r="3"/><text class="lab" transform="translate(0 -11)">19: 18914</text></g></g></g><g class="tree t1" transform="translate(400 0)"><g class="plotbox"><g class="c2 node n18 p0 root" transform="translate(231.438 461.735)"><g class="a18 c2 node n14 p0" transform="translate(81.8125 204.359)"><g class="a14 i6 leaf node n6 p0 sample" transform="translate(29.75 55.3064)"><path class="edge" d="M 0 0 V -55.3064 H -29.75"/><rect class="sym" height="6" width="6" x="-3" y="-3"/><text class="lab" transform="translate(0 11)">6: 0</text></g><g class="a14 c2 node n13 p0" transform="translate(-29.75 5.90624)"><g class="a13 i8 leaf node n8 p0 sample" transform="translate(25.5 49.4001)"><path class="edge" d="M 0 0 V -49.4001 H -25.5"/><rect class="sym" height="6" width="6" x="-3" y="-3"/><text class="lab" transform="translate(0 11)">8: 0</text></g><g class="a13 c2 node n10 p0" transform="translate(-25.5 34.6185)"><g class="a10 i1 leaf node n1 p0 sample" transform="translate(-17 14.7816)"><path class="edge" d="M 0 0 V -14.7816 H 17"/><rect class="sym" height="6" width="6" x="-3" y="-3"/><text class="lab" transform="translate(0 11)">1: 0</text></g><g class="a10 i2 leaf node n2 p0 sample" transform="translate(17 14.7816)"><path class="edge" d="M 0 0 V -14.7816 H -17"/><rect class="sym" height="6" width="6" x="-3" y="-3"/><text class="lab" transform="translate(0 11)">2: 0</text></g><path class="edge" d="M 0 0 V -34.6185 H 25.5"/><circle class="sym" cx="0" cy="0" r="3"/><text class="lab lft" transform="translate(-3 -7.0)">10: 402</text></g><path class="edge" d="M 0 0 V -5.90624 H 29.75"/><circle class="sym" cx="0" cy="0" r="3"/><text class="lab lft" transform="translate(-3 -7.0)">13: 1345</text></g><path class="edge" d="M 0 0 V -204.359 H -81.8125"/><circle class="sym" cx="0" cy="0" r="3"/><text class="lab rgt" transform="translate(3 -7.0)">14: 1506</text></g><g class="a18 c2 node n17 p0" transform="translate(-81.8125 91.9085)"><g class="a17 c2 node n15 p0" transform="translate(-40.375 108.484)"><g class="a15 i4 leaf node n4 p0 sample" transform="translate(29.75 59.2722)"><path class="edge" d="M 0 0 V -59.2722 H -29.75"/><rect class="sym" height="6" width="6" x="-3" y="-3"/><text class="lab" transform="translate(0 11)">4: 0</text></g><g class="a15 c2 node n12 p0" transform="translate(-29.75 24.7883)"><g class="a12 i7 leaf node n7 p0 sample" transform="translate(25.5 34.4839)"><path class="edge" d="M 0 0 V -34.4839 H -25.5"/><rect class="sym" height="6" width="6" x="-3" y="-3"/><text class="lab" transform="translate(0 11)">7: 0</text></g><g class="a12 c2 node n11 p0" transform="translate(-25.5 10.8919)"><g class="a11 i0 leaf node n0 p0 sample" transform="translate(-17 23.592)"><path class="edge" d="M 0 0 V -23.592 H 17"/><rect class="sym" height="6" width="6" x="-3" y="-3"/><text class="lab" transform="translate(0 11)">0: 0</text></g><g class="a11 i9 leaf node n9 p0 sample" transform="translate(17 23.592)"><path class="edge" d="M 0 0 V -23.592 H -17"/><rect class="sym" height="6" width="6" x="-3" y="-3"/><text class="lab" transform="translate(0 11)">9: 0</text></g><path class="edge" d="M 0 0 V -10.8919 H 25.5"/><circle class="sym" cx="0" cy="0" r="3"/><text class="lab lft" transform="translate(-3 -7.0)">11: 642</text></g><path class="edge" d="M 0 0 V -24.7883 H 29.75"/><circle class="sym" cx="0" cy="0" r="3"/><text class="lab lft" transform="translate(-3 -7.0)">12: 939</text></g><path class="edge" d="M 0 0 V -108.484 H 40.375"/><circle class="sym" cx="0" cy="0" r="3"/><text class="lab lft" transform="translate(-3 -7.0)">15: 1613</text></g><g class="a17 c2 node n16 p0" transform="translate(40.375 58.5186)"><g class="a16 i3 leaf node n3 p0 sample" transform="translate(-17 109.238)"><path class="edge" d="M 0 0 V -109.238 H 17"/><rect class="sym" height="6" width="6" x="-3" y="-3"/><text class="lab" transform="translate(0 11)">3: 0</text></g><g class="a16 i5 leaf node n5 p0 sample" transform="translate(17 109.238)"><path class="edge" d="M 0 0 V -109.238 H -17"/><rect class="sym" height="6" width="6" x="-3" y="-3"/><text class="lab" transform="translate(0 11)">5: 0</text></g><path class="edge" d="M 0 0 V -58.5186 H -40.375"/><circle class="sym" cx="0" cy="0" r="3"/><text class="lab rgt" transform="translate(3 -7.0)">16: 2974</text></g><path class="edge" d="M 0 0 V -91.9085 H 81.8125"/><circle class="sym" cx="0" cy="0" r="3"/><text class="lab lft" transform="translate(-3 -7.0)">17: 4568</text></g><circle class="sym" cx="0" cy="0" r="3"/><text class="lab" transform="translate(0 -11)">18: 7070</text></g></g></g></g></g></svg>